<svg width="1363" height="163" viewBox="0 0 1363 163" fill="none" xmlns="http://www.w3.org/2000/svg">
<path d="M0 15C0 6.71573 6.71573 0 15 0H37V163H15C6.71573 163 0 156.284 0 148V15Z" fill="#0CB4FB"/>
<rect width="1097" height="163" transform="translate(37)" fill="#F0F0F0"/>
<path d="M101.906 53.9219L94.3945 51.2383V48.0859L104.602 52.375V54.6367L101.906 53.9219ZM94.3945 56.1719L101.918 53.4297L104.602 52.7852V55.0352L94.3945 59.3242V56.1719ZM119.836 46.8555L115.195 61H111.457L117.797 43.9375H120.176L119.836 46.8555ZM123.691 61L119.039 46.8555L118.664 43.9375H121.066L127.441 61H123.691ZM123.48 54.6484V57.4023H114.469V54.6484H123.48ZM134.051 58.5977C134.465 58.5977 134.832 58.5195 135.152 58.3633C135.473 58.1992 135.723 57.9727 135.902 57.6836C136.09 57.3867 136.188 57.0391 136.195 56.6406H139.371C139.363 57.5312 139.125 58.3242 138.656 59.0195C138.188 59.707 137.559 60.25 136.77 60.6484C135.98 61.0391 135.098 61.2344 134.121 61.2344C133.137 61.2344 132.277 61.0703 131.543 60.7422C130.816 60.4141 130.211 59.9609 129.727 59.3828C129.242 58.7969 128.879 58.1172 128.637 57.3438C128.395 56.5625 128.273 55.7266 128.273 54.8359V54.4961C128.273 53.5977 128.395 52.7617 128.637 51.9883C128.879 51.207 129.242 50.5273 129.727 49.9492C130.211 49.3633 130.816 48.9062 131.543 48.5781C132.27 48.25 133.121 48.0859 134.098 48.0859C135.137 48.0859 136.047 48.2852 136.828 48.6836C137.617 49.082 138.234 49.6523 138.68 50.3945C139.133 51.1289 139.363 52 139.371 53.0078H136.195C136.188 52.5859 136.098 52.2031 135.926 51.8594C135.762 51.5156 135.52 51.2422 135.199 51.0391C134.887 50.8281 134.5 50.7227 134.039 50.7227C133.547 50.7227 133.145 50.8281 132.832 51.0391C132.52 51.2422 132.277 51.5234 132.105 51.8828C131.934 52.2344 131.812 52.6367 131.742 53.0898C131.68 53.5352 131.648 54.0039 131.648 54.4961V54.8359C131.648 55.3281 131.68 55.8008 131.742 56.2539C131.805 56.707 131.922 57.1094 132.094 57.4609C132.273 57.8125 132.52 58.0898 132.832 58.293C133.145 58.4961 133.551 58.5977 134.051 58.5977ZM146.566 58.5977C146.98 58.5977 147.348 58.5195 147.668 58.3633C147.988 58.1992 148.238 57.9727 148.418 57.6836C148.605 57.3867 148.703 57.0391 148.711 56.6406H151.887C151.879 57.5312 151.641 58.3242 151.172 59.0195C150.703 59.707 150.074 60.25 149.285 60.6484C148.496 61.0391 147.613 61.2344 146.637 61.2344C145.652 61.2344 144.793 61.0703 144.059 60.7422C143.332 60.4141 142.727 59.9609 142.242 59.3828C141.758 58.7969 141.395 58.1172 141.152 57.3438C140.91 56.5625 140.789 55.7266 140.789 54.8359V54.4961C140.789 53.5977 140.91 52.7617 141.152 51.9883C141.395 51.207 141.758 50.5273 142.242 49.9492C142.727 49.3633 143.332 48.9062 144.059 48.5781C144.785 48.25 145.637 48.0859 146.613 48.0859C147.652 48.0859 148.562 48.2852 149.344 48.6836C150.133 49.082 150.75 49.6523 151.195 50.3945C151.648 51.1289 151.879 52 151.887 53.0078H148.711C148.703 52.5859 148.613 52.2031 148.441 51.8594C148.277 51.5156 148.035 51.2422 147.715 51.0391C147.402 50.8281 147.016 50.7227 146.555 50.7227C146.062 50.7227 145.66 50.8281 145.348 51.0391C145.035 51.2422 144.793 51.5234 144.621 51.8828C144.449 52.2344 144.328 52.6367 144.258 53.0898C144.195 53.5352 144.164 54.0039 144.164 54.4961V54.8359C144.164 55.3281 144.195 55.8008 144.258 56.2539C144.32 56.707 144.438 57.1094 144.609 57.4609C144.789 57.8125 145.035 58.0898 145.348 58.293C145.66 58.4961 146.066 58.5977 146.566 58.5977ZM159.68 61.2344C158.695 61.2344 157.812 61.0781 157.031 60.7656C156.25 60.4453 155.586 60.0039 155.039 59.4414C154.5 58.8789 154.086 58.2266 153.797 57.4844C153.508 56.7344 153.363 55.9375 153.363 55.0938V54.625C153.363 53.6641 153.5 52.7852 153.773 51.9883C154.047 51.1914 154.438 50.5 154.945 49.9141C155.461 49.3281 156.086 48.8789 156.82 48.5664C157.555 48.2461 158.383 48.0859 159.305 48.0859C160.203 48.0859 161 48.2344 161.695 48.5312C162.391 48.8281 162.973 49.25 163.441 49.7969C163.918 50.3438 164.277 51 164.52 51.7656C164.762 52.5234 164.883 53.3672 164.883 54.2969V55.7031H154.805V53.4531H161.566V53.1953C161.566 52.7266 161.48 52.3086 161.309 51.9414C161.145 51.5664 160.895 51.2695 160.559 51.0508C160.223 50.832 159.793 50.7227 159.27 50.7227C158.824 50.7227 158.441 50.8203 158.121 51.0156C157.801 51.2109 157.539 51.4844 157.336 51.8359C157.141 52.1875 156.992 52.6016 156.891 53.0781C156.797 53.5469 156.75 54.0625 156.75 54.625V55.0938C156.75 55.6016 156.82 56.0703 156.961 56.5C157.109 56.9297 157.316 57.3008 157.582 57.6133C157.855 57.9258 158.184 58.168 158.566 58.3398C158.957 58.5117 159.398 58.5977 159.891 58.5977C160.5 58.5977 161.066 58.4805 161.59 58.2461C162.121 58.0039 162.578 57.6406 162.961 57.1562L164.602 58.9375C164.336 59.3203 163.973 59.6875 163.512 60.0391C163.059 60.3906 162.512 60.6797 161.871 60.9062C161.23 61.125 160.5 61.2344 159.68 61.2344ZM173.66 57.4961C173.66 57.2539 173.59 57.0352 173.449 56.8398C173.309 56.6445 173.047 56.4648 172.664 56.3008C172.289 56.1289 171.746 55.9727 171.035 55.832C170.395 55.6914 169.797 55.5156 169.242 55.3047C168.695 55.0859 168.219 54.8242 167.812 54.5195C167.414 54.2148 167.102 53.8555 166.875 53.4414C166.648 53.0195 166.535 52.5391 166.535 52C166.535 51.4688 166.648 50.9688 166.875 50.5C167.109 50.0312 167.441 49.6172 167.871 49.2578C168.309 48.8906 168.84 48.6055 169.465 48.4023C170.098 48.1914 170.809 48.0859 171.598 48.0859C172.699 48.0859 173.645 48.2617 174.434 48.6133C175.23 48.9648 175.84 49.4492 176.262 50.0664C176.691 50.6758 176.906 51.3711 176.906 52.1523H173.531C173.531 51.8242 173.461 51.5312 173.32 51.2734C173.188 51.0078 172.977 50.8008 172.688 50.6523C172.406 50.4961 172.039 50.418 171.586 50.418C171.211 50.418 170.887 50.4844 170.613 50.6172C170.34 50.7422 170.129 50.9141 169.98 51.1328C169.84 51.3438 169.77 51.5781 169.77 51.8359C169.77 52.0312 169.809 52.207 169.887 52.3633C169.973 52.5117 170.109 52.6484 170.297 52.7734C170.484 52.8984 170.727 53.0156 171.023 53.125C171.328 53.2266 171.703 53.3203 172.148 53.4062C173.062 53.5938 173.879 53.8398 174.598 54.1445C175.316 54.4414 175.887 54.8477 176.309 55.3633C176.73 55.8711 176.941 56.5391 176.941 57.3672C176.941 57.9297 176.816 58.4453 176.566 58.9141C176.316 59.3828 175.957 59.793 175.488 60.1445C175.02 60.4883 174.457 60.7578 173.801 60.9531C173.152 61.1406 172.422 61.2344 171.609 61.2344C170.43 61.2344 169.43 61.0234 168.609 60.6016C167.797 60.1797 167.18 59.6445 166.758 58.9961C166.344 58.3398 166.137 57.668 166.137 56.9805H169.336C169.352 57.4414 169.469 57.8125 169.688 58.0938C169.914 58.375 170.199 58.5781 170.543 58.7031C170.895 58.8281 171.273 58.8906 171.68 58.8906C172.117 58.8906 172.48 58.832 172.77 58.7148C173.059 58.5898 173.277 58.4258 173.426 58.2227C173.582 58.0117 173.66 57.7695 173.66 57.4961ZM185.988 57.4961C185.988 57.2539 185.918 57.0352 185.777 56.8398C185.637 56.6445 185.375 56.4648 184.992 56.3008C184.617 56.1289 184.074 55.9727 183.363 55.832C182.723 55.6914 182.125 55.5156 181.57 55.3047C181.023 55.0859 180.547 54.8242 180.141 54.5195C179.742 54.2148 179.43 53.8555 179.203 53.4414C178.977 53.0195 178.863 52.5391 178.863 52C178.863 51.4688 178.977 50.9688 179.203 50.5C179.438 50.0312 179.77 49.6172 180.199 49.2578C180.637 48.8906 181.168 48.6055 181.793 48.4023C182.426 48.1914 183.137 48.0859 183.926 48.0859C185.027 48.0859 185.973 48.2617 186.762 48.6133C187.559 48.9648 188.168 49.4492 188.59 50.0664C189.02 50.6758 189.234 51.3711 189.234 52.1523H185.859C185.859 51.8242 185.789 51.5312 185.648 51.2734C185.516 51.0078 185.305 50.8008 185.016 50.6523C184.734 50.4961 184.367 50.418 183.914 50.418C183.539 50.418 183.215 50.4844 182.941 50.6172C182.668 50.7422 182.457 50.9141 182.309 51.1328C182.168 51.3438 182.098 51.5781 182.098 51.8359C182.098 52.0312 182.137 52.207 182.215 52.3633C182.301 52.5117 182.438 52.6484 182.625 52.7734C182.812 52.8984 183.055 53.0156 183.352 53.125C183.656 53.2266 184.031 53.3203 184.477 53.4062C185.391 53.5938 186.207 53.8398 186.926 54.1445C187.645 54.4414 188.215 54.8477 188.637 55.3633C189.059 55.8711 189.27 56.5391 189.27 57.3672C189.27 57.9297 189.145 58.4453 188.895 58.9141C188.645 59.3828 188.285 59.793 187.816 60.1445C187.348 60.4883 186.785 60.7578 186.129 60.9531C185.48 61.1406 184.75 61.2344 183.938 61.2344C182.758 61.2344 181.758 61.0234 180.938 60.6016C180.125 60.1797 179.508 59.6445 179.086 58.9961C178.672 58.3398 178.465 57.668 178.465 56.9805H181.664C181.68 57.4414 181.797 57.8125 182.016 58.0938C182.242 58.375 182.527 58.5781 182.871 58.7031C183.223 58.8281 183.602 58.8906 184.008 58.8906C184.445 58.8906 184.809 58.832 185.098 58.7148C185.387 58.5898 185.605 58.4258 185.754 58.2227C185.91 58.0117 185.988 57.7695 185.988 57.4961ZM199.301 43.9375V61H195.797V43.9375H199.301ZM204.551 43.9375V46.6914H190.629V43.9375H204.551ZM211.078 61.2344C210.094 61.2344 209.211 61.0781 208.43 60.7656C207.648 60.4453 206.984 60.0039 206.438 59.4414C205.898 58.8789 205.484 58.2266 205.195 57.4844C204.906 56.7344 204.762 55.9375 204.762 55.0938V54.625C204.762 53.6641 204.898 52.7852 205.172 51.9883C205.445 51.1914 205.836 50.5 206.344 49.9141C206.859 49.3281 207.484 48.8789 208.219 48.5664C208.953 48.2461 209.781 48.0859 210.703 48.0859C211.602 48.0859 212.398 48.2344 213.094 48.5312C213.789 48.8281 214.371 49.25 214.84 49.7969C215.316 50.3438 215.676 51 215.918 51.7656C216.16 52.5234 216.281 53.3672 216.281 54.2969V55.7031H206.203V53.4531H212.965V53.1953C212.965 52.7266 212.879 52.3086 212.707 51.9414C212.543 51.5664 212.293 51.2695 211.957 51.0508C211.621 50.832 211.191 50.7227 210.668 50.7227C210.223 50.7227 209.84 50.8203 209.52 51.0156C209.199 51.2109 208.938 51.4844 208.734 51.8359C208.539 52.1875 208.391 52.6016 208.289 53.0781C208.195 53.5469 208.148 54.0625 208.148 54.625V55.0938C208.148 55.6016 208.219 56.0703 208.359 56.5C208.508 56.9297 208.715 57.3008 208.98 57.6133C209.254 57.9258 209.582 58.168 209.965 58.3398C210.355 58.5117 210.797 58.5977 211.289 58.5977C211.898 58.5977 212.465 58.4805 212.988 58.2461C213.52 58.0039 213.977 57.6406 214.359 57.1562L216 58.9375C215.734 59.3203 215.371 59.6875 214.91 60.0391C214.457 60.3906 213.91 60.6797 213.27 60.9062C212.629 61.125 211.898 61.2344 211.078 61.2344ZM225.059 57.4961C225.059 57.2539 224.988 57.0352 224.848 56.8398C224.707 56.6445 224.445 56.4648 224.062 56.3008C223.688 56.1289 223.145 55.9727 222.434 55.832C221.793 55.6914 221.195 55.5156 220.641 55.3047C220.094 55.0859 219.617 54.8242 219.211 54.5195C218.812 54.2148 218.5 53.8555 218.273 53.4414C218.047 53.0195 217.934 52.5391 217.934 52C217.934 51.4688 218.047 50.9688 218.273 50.5C218.508 50.0312 218.84 49.6172 219.27 49.2578C219.707 48.8906 220.238 48.6055 220.863 48.4023C221.496 48.1914 222.207 48.0859 222.996 48.0859C224.098 48.0859 225.043 48.2617 225.832 48.6133C226.629 48.9648 227.238 49.4492 227.66 50.0664C228.09 50.6758 228.305 51.3711 228.305 52.1523H224.93C224.93 51.8242 224.859 51.5312 224.719 51.2734C224.586 51.0078 224.375 50.8008 224.086 50.6523C223.805 50.4961 223.438 50.418 222.984 50.418C222.609 50.418 222.285 50.4844 222.012 50.6172C221.738 50.7422 221.527 50.9141 221.379 51.1328C221.238 51.3438 221.168 51.5781 221.168 51.8359C221.168 52.0312 221.207 52.207 221.285 52.3633C221.371 52.5117 221.508 52.6484 221.695 52.7734C221.883 52.8984 222.125 53.0156 222.422 53.125C222.727 53.2266 223.102 53.3203 223.547 53.4062C224.461 53.5938 225.277 53.8398 225.996 54.1445C226.715 54.4414 227.285 54.8477 227.707 55.3633C228.129 55.8711 228.34 56.5391 228.34 57.3672C228.34 57.9297 228.215 58.4453 227.965 58.9141C227.715 59.3828 227.355 59.793 226.887 60.1445C226.418 60.4883 225.855 60.7578 225.199 60.9531C224.551 61.1406 223.82 61.2344 223.008 61.2344C221.828 61.2344 220.828 61.0234 220.008 60.6016C219.195 60.1797 218.578 59.6445 218.156 58.9961C217.742 58.3398 217.535 57.668 217.535 56.9805H220.734C220.75 57.4414 220.867 57.8125 221.086 58.0938C221.312 58.375 221.598 58.5781 221.941 58.7031C222.293 58.8281 222.672 58.8906 223.078 58.8906C223.516 58.8906 223.879 58.832 224.168 58.7148C224.457 58.5898 224.676 58.4258 224.824 58.2227C224.98 58.0117 225.059 57.7695 225.059 57.4961ZM236.742 48.3203V50.7109H229.359V48.3203H236.742ZM231.188 45.1914H234.562V57.1797C234.562 57.5469 234.609 57.8281 234.703 58.0234C234.805 58.2188 234.953 58.3555 235.148 58.4336C235.344 58.5039 235.59 58.5391 235.887 58.5391C236.098 58.5391 236.285 58.5312 236.449 58.5156C236.621 58.4922 236.766 58.4688 236.883 58.4453L236.895 60.9297C236.605 61.0234 236.293 61.0977 235.957 61.1523C235.621 61.207 235.25 61.2344 234.844 61.2344C234.102 61.2344 233.453 61.1133 232.898 60.8711C232.352 60.6211 231.93 60.2227 231.633 59.6758C231.336 59.1289 231.188 58.4102 231.188 57.5195V45.1914Z" fill="#888888"/>
<path d="M118.594 98.4219V104.75H101.086V98.4219H118.594ZM103.828 84.875V119H95.6016V84.875H103.828ZM124.125 84.875V119H115.922V84.875H124.125ZM127.992 106.578V106.086C127.992 104.227 128.258 102.516 128.789 100.953C129.32 99.375 130.102 98.0078 131.133 96.8516C132.164 95.6953 133.438 94.7969 134.953 94.1562C136.469 93.5 138.219 93.1719 140.203 93.1719C142.203 93.1719 143.961 93.5 145.477 94.1562C147.008 94.7969 148.289 95.6953 149.32 96.8516C150.352 98.0078 151.133 99.375 151.664 100.953C152.195 102.516 152.461 104.227 152.461 106.086V106.578C152.461 108.422 152.195 110.133 151.664 111.711C151.133 113.273 150.352 114.641 149.32 115.812C148.289 116.969 147.016 117.867 145.5 118.508C143.984 119.148 142.234 119.469 140.25 119.469C138.266 119.469 136.508 119.148 134.977 118.508C133.445 117.867 132.164 116.969 131.133 115.812C130.102 114.641 129.32 113.273 128.789 111.711C128.258 110.133 127.992 108.422 127.992 106.578ZM135.891 106.086V106.578C135.891 107.531 135.961 108.422 136.102 109.25C136.242 110.078 136.477 110.805 136.805 111.43C137.133 112.039 137.578 112.516 138.141 112.859C138.703 113.203 139.406 113.375 140.25 113.375C141.078 113.375 141.766 113.203 142.312 112.859C142.875 112.516 143.32 112.039 143.648 111.43C143.977 110.805 144.211 110.078 144.352 109.25C144.492 108.422 144.562 107.531 144.562 106.578V106.086C144.562 105.164 144.492 104.297 144.352 103.484C144.211 102.656 143.977 101.93 143.648 101.305C143.32 100.664 142.875 100.164 142.312 99.8047C141.75 99.4453 141.047 99.2656 140.203 99.2656C139.375 99.2656 138.68 99.4453 138.117 99.8047C137.57 100.164 137.133 100.664 136.805 101.305C136.477 101.93 136.242 102.656 136.102 103.484C135.961 104.297 135.891 105.164 135.891 106.086ZM163.688 111.453L168.375 93.6406H173.32L171.562 102.57L166.922 119H162.961L163.688 111.453ZM161.836 93.6406L164.742 111.312L165.07 119H160.266L154.266 93.6406H161.836ZM177.492 110.938L180.422 93.6406H187.992L182.039 119H177.234L177.492 110.938ZM173.883 93.6406L178.617 111.406L179.344 119H175.336L170.789 102.617L169.102 93.6406H173.883ZM218.297 84.875V119H210.07V84.875H218.297ZM228.562 84.875V91.2266H200.039V84.875H228.562ZM225.773 106.578V106.086C225.773 104.227 226.039 102.516 226.57 100.953C227.102 99.375 227.883 98.0078 228.914 96.8516C229.945 95.6953 231.219 94.7969 232.734 94.1562C234.25 93.5 236 93.1719 237.984 93.1719C239.984 93.1719 241.742 93.5 243.258 94.1562C244.789 94.7969 246.07 95.6953 247.102 96.8516C248.133 98.0078 248.914 99.375 249.445 100.953C249.977 102.516 250.242 104.227 250.242 106.086V106.578C250.242 108.422 249.977 110.133 249.445 111.711C248.914 113.273 248.133 114.641 247.102 115.812C246.07 116.969 244.797 117.867 243.281 118.508C241.766 119.148 240.016 119.469 238.031 119.469C236.047 119.469 234.289 119.148 232.758 118.508C231.227 117.867 229.945 116.969 228.914 115.812C227.883 114.641 227.102 113.273 226.57 111.711C226.039 110.133 225.773 108.422 225.773 106.578ZM233.672 106.086V106.578C233.672 107.531 233.742 108.422 233.883 109.25C234.023 110.078 234.258 110.805 234.586 111.43C234.914 112.039 235.359 112.516 235.922 112.859C236.484 113.203 237.188 113.375 238.031 113.375C238.859 113.375 239.547 113.203 240.094 112.859C240.656 112.516 241.102 112.039 241.43 111.43C241.758 110.805 241.992 110.078 242.133 109.25C242.273 108.422 242.344 107.531 242.344 106.578V106.086C242.344 105.164 242.273 104.297 242.133 103.484C241.992 102.656 241.758 101.93 241.43 101.305C241.102 100.664 240.656 100.164 240.094 99.8047C239.531 99.4453 238.828 99.2656 237.984 99.2656C237.156 99.2656 236.461 99.4453 235.898 99.8047C235.352 100.164 234.914 100.664 234.586 101.305C234.258 101.93 234.023 102.656 233.883 103.484C233.742 104.297 233.672 105.164 233.672 106.086ZM266.086 84.875H279.516C282.141 84.875 284.422 85.2656 286.359 86.0469C288.297 86.8281 289.789 87.9844 290.836 89.5156C291.898 91.0469 292.43 92.9375 292.43 95.1875C292.43 97.1406 292.125 98.7734 291.516 100.086C290.906 101.398 290.055 102.484 288.961 103.344C287.883 104.188 286.625 104.883 285.188 105.43L282.492 106.953H271.219L271.172 100.602H279.516C280.562 100.602 281.43 100.414 282.117 100.039C282.805 99.6641 283.32 99.1328 283.664 98.4453C284.023 97.7422 284.203 96.9062 284.203 95.9375C284.203 94.9531 284.023 94.1094 283.664 93.4062C283.305 92.7031 282.773 92.1641 282.07 91.7891C281.383 91.4141 280.531 91.2266 279.516 91.2266H274.312V119H266.086V84.875ZM284.766 119L277.219 103.906L285.938 103.859L293.578 118.648V119H284.766ZM311.836 112.836V93.6406H319.758V119H312.352L311.836 112.836ZM312.586 107.68L314.648 107.633C314.648 109.336 314.445 110.914 314.039 112.367C313.633 113.805 313.031 115.055 312.234 116.117C311.453 117.18 310.484 118.008 309.328 118.602C308.188 119.18 306.867 119.469 305.367 119.469C304.117 119.469 302.969 119.297 301.922 118.953C300.891 118.594 300 118.039 299.25 117.289C298.5 116.523 297.914 115.547 297.492 114.359C297.086 113.156 296.883 111.719 296.883 110.047V93.6406H304.781V110.094C304.781 110.656 304.852 111.141 304.992 111.547C305.133 111.953 305.336 112.297 305.602 112.578C305.867 112.844 306.195 113.047 306.586 113.188C306.992 113.312 307.453 113.375 307.969 113.375C309.156 113.375 310.086 113.125 310.758 112.625C311.43 112.125 311.898 111.445 312.164 110.586C312.445 109.727 312.586 108.758 312.586 107.68ZM331.875 99.0547V119H323.977V93.6406H331.383L331.875 99.0547ZM330.938 105.453L329.086 105.5C329.086 103.562 329.32 101.836 329.789 100.32C330.258 98.7891 330.922 97.4922 331.781 96.4297C332.641 95.3672 333.664 94.5625 334.852 94.0156C336.055 93.4531 337.391 93.1719 338.859 93.1719C340.031 93.1719 341.102 93.3438 342.07 93.6875C343.055 94.0312 343.898 94.5859 344.602 95.3516C345.32 96.1172 345.867 97.1328 346.242 98.3984C346.633 99.6484 346.828 101.195 346.828 103.039V119H338.883V103.016C338.883 102 338.742 101.227 338.461 100.695C338.18 100.148 337.773 99.7734 337.242 99.5703C336.711 99.3672 336.062 99.2656 335.297 99.2656C334.484 99.2656 333.797 99.4219 333.234 99.7344C332.672 100.047 332.219 100.484 331.875 101.047C331.547 101.594 331.305 102.242 331.148 102.992C331.008 103.742 330.938 104.562 330.938 105.453ZM363.773 108.195H357.047C357.047 106.82 357.141 105.609 357.328 104.562C357.531 103.5 357.875 102.547 358.359 101.703C358.844 100.859 359.5 100.078 360.328 99.3594C361.062 98.75 361.695 98.1641 362.227 97.6016C362.758 97.0391 363.164 96.4688 363.445 95.8906C363.727 95.3125 363.867 94.6953 363.867 94.0391C363.867 93.2266 363.75 92.5625 363.516 92.0469C363.297 91.5312 362.961 91.1484 362.508 90.8984C362.07 90.6328 361.516 90.5 360.844 90.5C360.297 90.5 359.781 90.6328 359.297 90.8984C358.828 91.1641 358.445 91.5781 358.148 92.1406C357.852 92.6875 357.688 93.4141 357.656 94.3203H349.711C349.758 91.9922 350.273 90.1016 351.258 88.6484C352.258 87.1797 353.586 86.1094 355.242 85.4375C356.914 84.75 358.781 84.4062 360.844 84.4062C363.125 84.4062 365.086 84.7578 366.727 85.4609C368.367 86.1641 369.625 87.2109 370.5 88.6016C371.375 89.9766 371.812 91.6719 371.812 93.6875C371.812 95.0312 371.555 96.2031 371.039 97.2031C370.539 98.1875 369.859 99.1094 369 99.9688C368.156 100.812 367.211 101.719 366.164 102.688C365.258 103.484 364.641 104.297 364.312 105.125C363.984 105.938 363.805 106.961 363.773 108.195ZM356.086 115.32C356.086 114.195 356.492 113.258 357.305 112.508C358.117 111.742 359.172 111.359 360.469 111.359C361.766 111.359 362.82 111.742 363.633 112.508C364.445 113.258 364.852 114.195 364.852 115.32C364.852 116.445 364.445 117.391 363.633 118.156C362.82 118.906 361.766 119.281 360.469 119.281C359.172 119.281 358.117 118.906 357.305 118.156C356.492 117.391 356.086 116.445 356.086 115.32Z" fill="black"/>
<path d="M1134 0H1348C1356.28 0 1363 6.71573 1363 15V148C1363 156.284 1356.28 163 1348 163H1134V0Z" fill="#0CB4FB"/>
<path d="M1260.62 78.8078C1263.81 78.8078 1266.93 79.7552 1269.59 81.5302C1272.25 83.3052 1274.32 85.8281 1275.54 88.7798C1276.76 91.7315 1277.08 94.9795 1276.46 98.1131C1275.84 101.247 1274.3 104.125 1272.04 106.384C1269.78 108.643 1266.9 110.182 1263.77 110.805C1260.63 111.428 1257.39 111.108 1254.43 109.886C1251.48 108.663 1248.96 106.593 1247.18 103.936C1245.41 101.28 1244.46 98.1565 1244.46 94.9616C1244.46 90.6774 1246.16 86.5686 1249.19 83.5392C1252.22 80.5097 1256.33 78.8078 1260.62 78.8078V78.8078ZM1260.62 73.4232C1256.36 73.4232 1252.19 74.6864 1248.65 77.0531C1245.11 79.4198 1242.35 82.7836 1240.72 86.7192C1239.09 90.6549 1238.66 94.9855 1239.49 99.1636C1240.32 103.342 1242.37 107.179 1245.39 110.192C1248.4 113.204 1252.24 115.255 1256.41 116.086C1260.59 116.917 1264.92 116.491 1268.86 114.861C1272.79 113.23 1276.16 110.47 1278.52 106.928C1280.89 103.386 1282.15 99.2215 1282.15 94.9616C1282.15 89.2493 1279.88 83.7709 1275.85 79.7317C1271.81 75.6924 1266.33 73.4232 1260.62 73.4232Z" fill="white"/>
<path d="M1274.08 46.5H1220.23C1218.8 46.5 1217.43 47.0673 1216.42 48.0771C1215.41 49.0869 1214.85 50.4565 1214.85 51.8846V105.731C1214.85 107.159 1215.41 108.528 1216.42 109.538C1217.43 110.548 1218.8 111.115 1220.23 111.115H1231V105.731H1220.23V68.0384H1279.46V51.8846C1279.46 50.4565 1278.89 49.0869 1277.88 48.0771C1276.87 47.0673 1275.5 46.5 1274.08 46.5V46.5ZM1220.23 62.6538V51.8846H1274.08V62.6538H1220.23Z" fill="white"/>
<path d="M1255.23 86.8849V103.039L1268.69 94.9618L1255.23 86.8849Z" fill="white"/>
</svg>
