<svg width="1363" height="163" viewBox="0 0 1363 163" fill="none" xmlns="http://www.w3.org/2000/svg">
<path d="M0 15C0 6.71573 6.71573 0 15 0H37V163H15C6.71573 163 0 156.284 0 148V15Z" fill="#0CB4FB"/>
<rect width="1097" height="163" transform="translate(37)" fill="#F0F0F0"/>
<path d="M101.906 53.9219L94.3945 51.2383V48.0859L104.602 52.375V54.6367L101.906 53.9219ZM94.3945 56.1719L101.918 53.4297L104.602 52.7852V55.0352L94.3945 59.3242V56.1719ZM119.836 46.8555L115.195 61H111.457L117.797 43.9375H120.176L119.836 46.8555ZM123.691 61L119.039 46.8555L118.664 43.9375H121.066L127.441 61H123.691ZM123.48 54.6484V57.4023H114.469V54.6484H123.48ZM134.051 58.5977C134.465 58.5977 134.832 58.5195 135.152 58.3633C135.473 58.1992 135.723 57.9727 135.902 57.6836C136.09 57.3867 136.188 57.0391 136.195 56.6406H139.371C139.363 57.5312 139.125 58.3242 138.656 59.0195C138.188 59.707 137.559 60.25 136.77 60.6484C135.98 61.0391 135.098 61.2344 134.121 61.2344C133.137 61.2344 132.277 61.0703 131.543 60.7422C130.816 60.4141 130.211 59.9609 129.727 59.3828C129.242 58.7969 128.879 58.1172 128.637 57.3438C128.395 56.5625 128.273 55.7266 128.273 54.8359V54.4961C128.273 53.5977 128.395 52.7617 128.637 51.9883C128.879 51.207 129.242 50.5273 129.727 49.9492C130.211 49.3633 130.816 48.9062 131.543 48.5781C132.27 48.25 133.121 48.0859 134.098 48.0859C135.137 48.0859 136.047 48.2852 136.828 48.6836C137.617 49.082 138.234 49.6523 138.68 50.3945C139.133 51.1289 139.363 52 139.371 53.0078H136.195C136.188 52.5859 136.098 52.2031 135.926 51.8594C135.762 51.5156 135.52 51.2422 135.199 51.0391C134.887 50.8281 134.5 50.7227 134.039 50.7227C133.547 50.7227 133.145 50.8281 132.832 51.0391C132.52 51.2422 132.277 51.5234 132.105 51.8828C131.934 52.2344 131.812 52.6367 131.742 53.0898C131.68 53.5352 131.648 54.0039 131.648 54.4961V54.8359C131.648 55.3281 131.68 55.8008 131.742 56.2539C131.805 56.707 131.922 57.1094 132.094 57.4609C132.273 57.8125 132.52 58.0898 132.832 58.293C133.145 58.4961 133.551 58.5977 134.051 58.5977ZM146.566 58.5977C146.98 58.5977 147.348 58.5195 147.668 58.3633C147.988 58.1992 148.238 57.9727 148.418 57.6836C148.605 57.3867 148.703 57.0391 148.711 56.6406H151.887C151.879 57.5312 151.641 58.3242 151.172 59.0195C150.703 59.707 150.074 60.25 149.285 60.6484C148.496 61.0391 147.613 61.2344 146.637 61.2344C145.652 61.2344 144.793 61.0703 144.059 60.7422C143.332 60.4141 142.727 59.9609 142.242 59.3828C141.758 58.7969 141.395 58.1172 141.152 57.3438C140.91 56.5625 140.789 55.7266 140.789 54.8359V54.4961C140.789 53.5977 140.91 52.7617 141.152 51.9883C141.395 51.207 141.758 50.5273 142.242 49.9492C142.727 49.3633 143.332 48.9062 144.059 48.5781C144.785 48.25 145.637 48.0859 146.613 48.0859C147.652 48.0859 148.562 48.2852 149.344 48.6836C150.133 49.082 150.75 49.6523 151.195 50.3945C151.648 51.1289 151.879 52 151.887 53.0078H148.711C148.703 52.5859 148.613 52.2031 148.441 51.8594C148.277 51.5156 148.035 51.2422 147.715 51.0391C147.402 50.8281 147.016 50.7227 146.555 50.7227C146.062 50.7227 145.66 50.8281 145.348 51.0391C145.035 51.2422 144.793 51.5234 144.621 51.8828C144.449 52.2344 144.328 52.6367 144.258 53.0898C144.195 53.5352 144.164 54.0039 144.164 54.4961V54.8359C144.164 55.3281 144.195 55.8008 144.258 56.2539C144.32 56.707 144.438 57.1094 144.609 57.4609C144.789 57.8125 145.035 58.0898 145.348 58.293C145.66 58.4961 146.066 58.5977 146.566 58.5977ZM159.68 61.2344C158.695 61.2344 157.812 61.0781 157.031 60.7656C156.25 60.4453 155.586 60.0039 155.039 59.4414C154.5 58.8789 154.086 58.2266 153.797 57.4844C153.508 56.7344 153.363 55.9375 153.363 55.0938V54.625C153.363 53.6641 153.5 52.7852 153.773 51.9883C154.047 51.1914 154.438 50.5 154.945 49.9141C155.461 49.3281 156.086 48.8789 156.82 48.5664C157.555 48.2461 158.383 48.0859 159.305 48.0859C160.203 48.0859 161 48.2344 161.695 48.5312C162.391 48.8281 162.973 49.25 163.441 49.7969C163.918 50.3438 164.277 51 164.52 51.7656C164.762 52.5234 164.883 53.3672 164.883 54.2969V55.7031H154.805V53.4531H161.566V53.1953C161.566 52.7266 161.48 52.3086 161.309 51.9414C161.145 51.5664 160.895 51.2695 160.559 51.0508C160.223 50.832 159.793 50.7227 159.27 50.7227C158.824 50.7227 158.441 50.8203 158.121 51.0156C157.801 51.2109 157.539 51.4844 157.336 51.8359C157.141 52.1875 156.992 52.6016 156.891 53.0781C156.797 53.5469 156.75 54.0625 156.75 54.625V55.0938C156.75 55.6016 156.82 56.0703 156.961 56.5C157.109 56.9297 157.316 57.3008 157.582 57.6133C157.855 57.9258 158.184 58.168 158.566 58.3398C158.957 58.5117 159.398 58.5977 159.891 58.5977C160.5 58.5977 161.066 58.4805 161.59 58.2461C162.121 58.0039 162.578 57.6406 162.961 57.1562L164.602 58.9375C164.336 59.3203 163.973 59.6875 163.512 60.0391C163.059 60.3906 162.512 60.6797 161.871 60.9062C161.23 61.125 160.5 61.2344 159.68 61.2344ZM173.66 57.4961C173.66 57.2539 173.59 57.0352 173.449 56.8398C173.309 56.6445 173.047 56.4648 172.664 56.3008C172.289 56.1289 171.746 55.9727 171.035 55.832C170.395 55.6914 169.797 55.5156 169.242 55.3047C168.695 55.0859 168.219 54.8242 167.812 54.5195C167.414 54.2148 167.102 53.8555 166.875 53.4414C166.648 53.0195 166.535 52.5391 166.535 52C166.535 51.4688 166.648 50.9688 166.875 50.5C167.109 50.0312 167.441 49.6172 167.871 49.2578C168.309 48.8906 168.84 48.6055 169.465 48.4023C170.098 48.1914 170.809 48.0859 171.598 48.0859C172.699 48.0859 173.645 48.2617 174.434 48.6133C175.23 48.9648 175.84 49.4492 176.262 50.0664C176.691 50.6758 176.906 51.3711 176.906 52.1523H173.531C173.531 51.8242 173.461 51.5312 173.32 51.2734C173.188 51.0078 172.977 50.8008 172.688 50.6523C172.406 50.4961 172.039 50.418 171.586 50.418C171.211 50.418 170.887 50.4844 170.613 50.6172C170.34 50.7422 170.129 50.9141 169.98 51.1328C169.84 51.3438 169.77 51.5781 169.77 51.8359C169.77 52.0312 169.809 52.207 169.887 52.3633C169.973 52.5117 170.109 52.6484 170.297 52.7734C170.484 52.8984 170.727 53.0156 171.023 53.125C171.328 53.2266 171.703 53.3203 172.148 53.4062C173.062 53.5938 173.879 53.8398 174.598 54.1445C175.316 54.4414 175.887 54.8477 176.309 55.3633C176.73 55.8711 176.941 56.5391 176.941 57.3672C176.941 57.9297 176.816 58.4453 176.566 58.9141C176.316 59.3828 175.957 59.793 175.488 60.1445C175.02 60.4883 174.457 60.7578 173.801 60.9531C173.152 61.1406 172.422 61.2344 171.609 61.2344C170.43 61.2344 169.43 61.0234 168.609 60.6016C167.797 60.1797 167.18 59.6445 166.758 58.9961C166.344 58.3398 166.137 57.668 166.137 56.9805H169.336C169.352 57.4414 169.469 57.8125 169.688 58.0938C169.914 58.375 170.199 58.5781 170.543 58.7031C170.895 58.8281 171.273 58.8906 171.68 58.8906C172.117 58.8906 172.48 58.832 172.77 58.7148C173.059 58.5898 173.277 58.4258 173.426 58.2227C173.582 58.0117 173.66 57.7695 173.66 57.4961ZM185.988 57.4961C185.988 57.2539 185.918 57.0352 185.777 56.8398C185.637 56.6445 185.375 56.4648 184.992 56.3008C184.617 56.1289 184.074 55.9727 183.363 55.832C182.723 55.6914 182.125 55.5156 181.57 55.3047C181.023 55.0859 180.547 54.8242 180.141 54.5195C179.742 54.2148 179.43 53.8555 179.203 53.4414C178.977 53.0195 178.863 52.5391 178.863 52C178.863 51.4688 178.977 50.9688 179.203 50.5C179.438 50.0312 179.77 49.6172 180.199 49.2578C180.637 48.8906 181.168 48.6055 181.793 48.4023C182.426 48.1914 183.137 48.0859 183.926 48.0859C185.027 48.0859 185.973 48.2617 186.762 48.6133C187.559 48.9648 188.168 49.4492 188.59 50.0664C189.02 50.6758 189.234 51.3711 189.234 52.1523H185.859C185.859 51.8242 185.789 51.5312 185.648 51.2734C185.516 51.0078 185.305 50.8008 185.016 50.6523C184.734 50.4961 184.367 50.418 183.914 50.418C183.539 50.418 183.215 50.4844 182.941 50.6172C182.668 50.7422 182.457 50.9141 182.309 51.1328C182.168 51.3438 182.098 51.5781 182.098 51.8359C182.098 52.0312 182.137 52.207 182.215 52.3633C182.301 52.5117 182.438 52.6484 182.625 52.7734C182.812 52.8984 183.055 53.0156 183.352 53.125C183.656 53.2266 184.031 53.3203 184.477 53.4062C185.391 53.5938 186.207 53.8398 186.926 54.1445C187.645 54.4414 188.215 54.8477 188.637 55.3633C189.059 55.8711 189.27 56.5391 189.27 57.3672C189.27 57.9297 189.145 58.4453 188.895 58.9141C188.645 59.3828 188.285 59.793 187.816 60.1445C187.348 60.4883 186.785 60.7578 186.129 60.9531C185.48 61.1406 184.75 61.2344 183.938 61.2344C182.758 61.2344 181.758 61.0234 180.938 60.6016C180.125 60.1797 179.508 59.6445 179.086 58.9961C178.672 58.3398 178.465 57.668 178.465 56.9805H181.664C181.68 57.4414 181.797 57.8125 182.016 58.0938C182.242 58.375 182.527 58.5781 182.871 58.7031C183.223 58.8281 183.602 58.8906 184.008 58.8906C184.445 58.8906 184.809 58.832 185.098 58.7148C185.387 58.5898 185.605 58.4258 185.754 58.2227C185.91 58.0117 185.988 57.7695 185.988 57.4961ZM199.301 43.9375V61H195.797V43.9375H199.301ZM204.551 43.9375V46.6914H190.629V43.9375H204.551ZM211.078 61.2344C210.094 61.2344 209.211 61.0781 208.43 60.7656C207.648 60.4453 206.984 60.0039 206.438 59.4414C205.898 58.8789 205.484 58.2266 205.195 57.4844C204.906 56.7344 204.762 55.9375 204.762 55.0938V54.625C204.762 53.6641 204.898 52.7852 205.172 51.9883C205.445 51.1914 205.836 50.5 206.344 49.9141C206.859 49.3281 207.484 48.8789 208.219 48.5664C208.953 48.2461 209.781 48.0859 210.703 48.0859C211.602 48.0859 212.398 48.2344 213.094 48.5312C213.789 48.8281 214.371 49.25 214.84 49.7969C215.316 50.3438 215.676 51 215.918 51.7656C216.16 52.5234 216.281 53.3672 216.281 54.2969V55.7031H206.203V53.4531H212.965V53.1953C212.965 52.7266 212.879 52.3086 212.707 51.9414C212.543 51.5664 212.293 51.2695 211.957 51.0508C211.621 50.832 211.191 50.7227 210.668 50.7227C210.223 50.7227 209.84 50.8203 209.52 51.0156C209.199 51.2109 208.938 51.4844 208.734 51.8359C208.539 52.1875 208.391 52.6016 208.289 53.0781C208.195 53.5469 208.148 54.0625 208.148 54.625V55.0938C208.148 55.6016 208.219 56.0703 208.359 56.5C208.508 56.9297 208.715 57.3008 208.98 57.6133C209.254 57.9258 209.582 58.168 209.965 58.3398C210.355 58.5117 210.797 58.5977 211.289 58.5977C211.898 58.5977 212.465 58.4805 212.988 58.2461C213.52 58.0039 213.977 57.6406 214.359 57.1562L216 58.9375C215.734 59.3203 215.371 59.6875 214.91 60.0391C214.457 60.3906 213.91 60.6797 213.27 60.9062C212.629 61.125 211.898 61.2344 211.078 61.2344ZM225.059 57.4961C225.059 57.2539 224.988 57.0352 224.848 56.8398C224.707 56.6445 224.445 56.4648 224.062 56.3008C223.688 56.1289 223.145 55.9727 222.434 55.832C221.793 55.6914 221.195 55.5156 220.641 55.3047C220.094 55.0859 219.617 54.8242 219.211 54.5195C218.812 54.2148 218.5 53.8555 218.273 53.4414C218.047 53.0195 217.934 52.5391 217.934 52C217.934 51.4688 218.047 50.9688 218.273 50.5C218.508 50.0312 218.84 49.6172 219.27 49.2578C219.707 48.8906 220.238 48.6055 220.863 48.4023C221.496 48.1914 222.207 48.0859 222.996 48.0859C224.098 48.0859 225.043 48.2617 225.832 48.6133C226.629 48.9648 227.238 49.4492 227.66 50.0664C228.09 50.6758 228.305 51.3711 228.305 52.1523H224.93C224.93 51.8242 224.859 51.5312 224.719 51.2734C224.586 51.0078 224.375 50.8008 224.086 50.6523C223.805 50.4961 223.438 50.418 222.984 50.418C222.609 50.418 222.285 50.4844 222.012 50.6172C221.738 50.7422 221.527 50.9141 221.379 51.1328C221.238 51.3438 221.168 51.5781 221.168 51.8359C221.168 52.0312 221.207 52.207 221.285 52.3633C221.371 52.5117 221.508 52.6484 221.695 52.7734C221.883 52.8984 222.125 53.0156 222.422 53.125C222.727 53.2266 223.102 53.3203 223.547 53.4062C224.461 53.5938 225.277 53.8398 225.996 54.1445C226.715 54.4414 227.285 54.8477 227.707 55.3633C228.129 55.8711 228.34 56.5391 228.34 57.3672C228.34 57.9297 228.215 58.4453 227.965 58.9141C227.715 59.3828 227.355 59.793 226.887 60.1445C226.418 60.4883 225.855 60.7578 225.199 60.9531C224.551 61.1406 223.82 61.2344 223.008 61.2344C221.828 61.2344 220.828 61.0234 220.008 60.6016C219.195 60.1797 218.578 59.6445 218.156 58.9961C217.742 58.3398 217.535 57.668 217.535 56.9805H220.734C220.75 57.4414 220.867 57.8125 221.086 58.0938C221.312 58.375 221.598 58.5781 221.941 58.7031C222.293 58.8281 222.672 58.8906 223.078 58.8906C223.516 58.8906 223.879 58.832 224.168 58.7148C224.457 58.5898 224.676 58.4258 224.824 58.2227C224.98 58.0117 225.059 57.7695 225.059 57.4961ZM236.742 48.3203V50.7109H229.359V48.3203H236.742ZM231.188 45.1914H234.562V57.1797C234.562 57.5469 234.609 57.8281 234.703 58.0234C234.805 58.2188 234.953 58.3555 235.148 58.4336C235.344 58.5039 235.59 58.5391 235.887 58.5391C236.098 58.5391 236.285 58.5312 236.449 58.5156C236.621 58.4922 236.766 58.4688 236.883 58.4453L236.895 60.9297C236.605 61.0234 236.293 61.0977 235.957 61.1523C235.621 61.207 235.25 61.2344 234.844 61.2344C234.102 61.2344 233.453 61.1133 232.898 60.8711C232.352 60.6211 231.93 60.2227 231.633 59.6758C231.336 59.1289 231.188 58.4102 231.188 57.5195V45.1914Z" fill="#888888"/>
<path d="M104.344 84.875V119H96.1406V84.875H104.344ZM117.727 99.0078V119H109.828V93.6406H117.234L117.727 99.0078ZM116.766 105.453L114.961 105.5C114.961 103.719 115.172 102.078 115.594 100.578C116.016 99.0781 116.641 97.7734 117.469 96.6641C118.297 95.5547 119.312 94.6953 120.516 94.0859C121.734 93.4766 123.141 93.1719 124.734 93.1719C125.844 93.1719 126.852 93.3438 127.758 93.6875C128.664 94.0156 129.445 94.5391 130.102 95.2578C130.758 95.9609 131.258 96.8828 131.602 98.0234C131.961 99.1484 132.141 100.5 132.141 102.078V119H124.242V103.086C124.242 102.008 124.117 101.195 123.867 100.648C123.633 100.102 123.289 99.7344 122.836 99.5469C122.383 99.3594 121.828 99.2656 121.172 99.2656C120.484 99.2656 119.867 99.4219 119.32 99.7344C118.773 100.047 118.305 100.484 117.914 101.047C117.539 101.594 117.25 102.242 117.047 102.992C116.859 103.742 116.766 104.562 116.766 105.453ZM131.25 105.453L129.047 105.5C129.047 103.719 129.242 102.078 129.633 100.578C130.039 99.0781 130.641 97.7734 131.438 96.6641C132.25 95.5547 133.258 94.6953 134.461 94.0859C135.664 93.4766 137.062 93.1719 138.656 93.1719C139.812 93.1719 140.875 93.3438 141.844 93.6875C142.812 94.0312 143.648 94.5859 144.352 95.3516C145.055 96.1172 145.602 97.1328 145.992 98.3984C146.383 99.6484 146.578 101.195 146.578 103.039V119H138.656V103.039C138.656 101.992 138.531 101.203 138.281 100.672C138.047 100.125 137.703 99.7578 137.25 99.5703C136.797 99.3672 136.258 99.2656 135.633 99.2656C134.883 99.2656 134.234 99.4219 133.688 99.7344C133.141 100.047 132.68 100.484 132.305 101.047C131.945 101.594 131.68 102.242 131.508 102.992C131.336 103.742 131.25 104.562 131.25 105.453ZM159.07 98.5156V128.75H151.172V93.6406H158.531L159.07 98.5156ZM174.633 106.016V106.508C174.633 108.352 174.422 110.062 174 111.641C173.578 113.219 172.953 114.594 172.125 115.766C171.297 116.938 170.266 117.852 169.031 118.508C167.812 119.148 166.398 119.469 164.789 119.469C163.273 119.469 161.969 119.133 160.875 118.461C159.781 117.789 158.867 116.859 158.133 115.672C157.398 114.484 156.805 113.125 156.352 111.594C155.898 110.062 155.539 108.445 155.273 106.742V106.109C155.539 104.281 155.898 102.586 156.352 101.023C156.805 99.4453 157.398 98.0703 158.133 96.8984C158.867 95.7266 159.773 94.8125 160.852 94.1562C161.945 93.5 163.25 93.1719 164.766 93.1719C166.375 93.1719 167.789 93.4766 169.008 94.0859C170.242 94.6953 171.273 95.5703 172.102 96.7109C172.945 97.8359 173.578 99.1875 174 100.766C174.422 102.344 174.633 104.094 174.633 106.016ZM166.734 106.508V106.016C166.734 105.031 166.664 104.133 166.523 103.32C166.383 102.492 166.156 101.773 165.844 101.164C165.547 100.555 165.148 100.086 164.648 99.7578C164.148 99.4297 163.531 99.2656 162.797 99.2656C161.953 99.2656 161.242 99.3984 160.664 99.6641C160.102 99.9141 159.648 100.305 159.305 100.836C158.977 101.352 158.742 102 158.602 102.781C158.477 103.547 158.422 104.445 158.438 105.477V107.398C158.406 108.586 158.523 109.633 158.789 110.539C159.055 111.43 159.516 112.125 160.172 112.625C160.828 113.125 161.719 113.375 162.844 113.375C163.594 113.375 164.219 113.203 164.719 112.859C165.219 112.5 165.617 112.008 165.914 111.383C166.211 110.742 166.422 110.008 166.547 109.18C166.672 108.352 166.734 107.461 166.734 106.508ZM186.492 83V119H178.57V83H186.492ZM203.648 119.469C201.586 119.469 199.742 119.148 198.117 118.508C196.492 117.852 195.117 116.953 193.992 115.812C192.883 114.672 192.031 113.359 191.438 111.875C190.859 110.391 190.57 108.82 190.57 107.164V106.273C190.57 104.414 190.828 102.695 191.344 101.117C191.859 99.5234 192.625 98.1328 193.641 96.9453C194.656 95.7578 195.93 94.8359 197.461 94.1797C198.992 93.5078 200.773 93.1719 202.805 93.1719C204.602 93.1719 206.211 93.4609 207.633 94.0391C209.055 94.6172 210.258 95.4453 211.242 96.5234C212.242 97.6016 213 98.9062 213.516 100.438C214.047 101.969 214.312 103.688 214.312 105.594V108.805H193.594V103.859H206.602V103.25C206.617 102.406 206.469 101.688 206.156 101.094C205.859 100.5 205.422 100.047 204.844 99.7344C204.266 99.4219 203.562 99.2656 202.734 99.2656C201.875 99.2656 201.164 99.4531 200.602 99.8281C200.055 100.203 199.625 100.719 199.312 101.375C199.016 102.016 198.805 102.758 198.68 103.602C198.555 104.445 198.492 105.336 198.492 106.273V107.164C198.492 108.102 198.617 108.953 198.867 109.719C199.133 110.484 199.508 111.141 199.992 111.688C200.492 112.219 201.086 112.633 201.773 112.93C202.477 113.227 203.273 113.375 204.164 113.375C205.242 113.375 206.305 113.172 207.352 112.766C208.398 112.359 209.297 111.688 210.047 110.75L213.633 115.016C213.117 115.75 212.383 116.461 211.43 117.148C210.492 117.836 209.367 118.398 208.055 118.836C206.742 119.258 205.273 119.469 203.648 119.469ZM225.492 99.0078V119H217.594V93.6406H225L225.492 99.0078ZM224.531 105.453L222.727 105.5C222.727 103.719 222.938 102.078 223.359 100.578C223.781 99.0781 224.406 97.7734 225.234 96.6641C226.062 95.5547 227.078 94.6953 228.281 94.0859C229.5 93.4766 230.906 93.1719 232.5 93.1719C233.609 93.1719 234.617 93.3438 235.523 93.6875C236.43 94.0156 237.211 94.5391 237.867 95.2578C238.523 95.9609 239.023 96.8828 239.367 98.0234C239.727 99.1484 239.906 100.5 239.906 102.078V119H232.008V103.086C232.008 102.008 231.883 101.195 231.633 100.648C231.398 100.102 231.055 99.7344 230.602 99.5469C230.148 99.3594 229.594 99.2656 228.938 99.2656C228.25 99.2656 227.633 99.4219 227.086 99.7344C226.539 100.047 226.07 100.484 225.68 101.047C225.305 101.594 225.016 102.242 224.812 102.992C224.625 103.742 224.531 104.562 224.531 105.453ZM239.016 105.453L236.812 105.5C236.812 103.719 237.008 102.078 237.398 100.578C237.805 99.0781 238.406 97.7734 239.203 96.6641C240.016 95.5547 241.023 94.6953 242.227 94.0859C243.43 93.4766 244.828 93.1719 246.422 93.1719C247.578 93.1719 248.641 93.3438 249.609 93.6875C250.578 94.0312 251.414 94.5859 252.117 95.3516C252.82 96.1172 253.367 97.1328 253.758 98.3984C254.148 99.6484 254.344 101.195 254.344 103.039V119H246.422V103.039C246.422 101.992 246.297 101.203 246.047 100.672C245.812 100.125 245.469 99.7578 245.016 99.5703C244.562 99.3672 244.023 99.2656 243.398 99.2656C242.648 99.2656 242 99.4219 241.453 99.7344C240.906 100.047 240.445 100.484 240.07 101.047C239.711 101.594 239.445 102.242 239.273 102.992C239.102 103.742 239.016 104.562 239.016 105.453ZM271.148 119.469C269.086 119.469 267.242 119.148 265.617 118.508C263.992 117.852 262.617 116.953 261.492 115.812C260.383 114.672 259.531 113.359 258.938 111.875C258.359 110.391 258.07 108.82 258.07 107.164V106.273C258.07 104.414 258.328 102.695 258.844 101.117C259.359 99.5234 260.125 98.1328 261.141 96.9453C262.156 95.7578 263.43 94.8359 264.961 94.1797C266.492 93.5078 268.273 93.1719 270.305 93.1719C272.102 93.1719 273.711 93.4609 275.133 94.0391C276.555 94.6172 277.758 95.4453 278.742 96.5234C279.742 97.6016 280.5 98.9062 281.016 100.438C281.547 101.969 281.812 103.688 281.812 105.594V108.805H261.094V103.859H274.102V103.25C274.117 102.406 273.969 101.688 273.656 101.094C273.359 100.5 272.922 100.047 272.344 99.7344C271.766 99.4219 271.062 99.2656 270.234 99.2656C269.375 99.2656 268.664 99.4531 268.102 99.8281C267.555 100.203 267.125 100.719 266.812 101.375C266.516 102.016 266.305 102.758 266.18 103.602C266.055 104.445 265.992 105.336 265.992 106.273V107.164C265.992 108.102 266.117 108.953 266.367 109.719C266.633 110.484 267.008 111.141 267.492 111.688C267.992 112.219 268.586 112.633 269.273 112.93C269.977 113.227 270.773 113.375 271.664 113.375C272.742 113.375 273.805 113.172 274.852 112.766C275.898 112.359 276.797 111.688 277.547 110.75L281.133 115.016C280.617 115.75 279.883 116.461 278.93 117.148C277.992 117.836 276.867 118.398 275.555 118.836C274.242 119.258 272.773 119.469 271.148 119.469ZM292.781 99.0547V119H284.883V93.6406H292.289L292.781 99.0547ZM291.844 105.453L289.992 105.5C289.992 103.562 290.227 101.836 290.695 100.32C291.164 98.7891 291.828 97.4922 292.688 96.4297C293.547 95.3672 294.57 94.5625 295.758 94.0156C296.961 93.4531 298.297 93.1719 299.766 93.1719C300.938 93.1719 302.008 93.3438 302.977 93.6875C303.961 94.0312 304.805 94.5859 305.508 95.3516C306.227 96.1172 306.773 97.1328 307.148 98.3984C307.539 99.6484 307.734 101.195 307.734 103.039V119H299.789V103.016C299.789 102 299.648 101.227 299.367 100.695C299.086 100.148 298.68 99.7734 298.148 99.5703C297.617 99.3672 296.969 99.2656 296.203 99.2656C295.391 99.2656 294.703 99.4219 294.141 99.7344C293.578 100.047 293.125 100.484 292.781 101.047C292.453 101.594 292.211 102.242 292.055 102.992C291.914 103.742 291.844 104.562 291.844 105.453ZM325.477 93.6406V99.125H310.195V93.6406H325.477ZM313.406 87.3359H321.305V110.727C321.305 111.398 321.383 111.922 321.539 112.297C321.695 112.656 321.961 112.914 322.336 113.07C322.727 113.211 323.242 113.281 323.883 113.281C324.336 113.281 324.711 113.273 325.008 113.258C325.305 113.227 325.586 113.188 325.852 113.141V118.789C325.18 119.008 324.477 119.172 323.742 119.281C323.008 119.406 322.227 119.469 321.398 119.469C319.711 119.469 318.266 119.203 317.062 118.672C315.875 118.141 314.969 117.305 314.344 116.164C313.719 115.023 313.406 113.539 313.406 111.711V87.3359ZM341.789 112.625V102.172C341.789 101.453 341.688 100.836 341.484 100.32C341.281 99.8047 340.961 99.4062 340.523 99.125C340.086 98.8281 339.5 98.6797 338.766 98.6797C338.172 98.6797 337.664 98.7812 337.242 98.9844C336.82 99.1875 336.5 99.4922 336.281 99.8984C336.062 100.305 335.953 100.82 335.953 101.445H328.055C328.055 100.273 328.312 99.1875 328.828 98.1875C329.359 97.1719 330.109 96.2891 331.078 95.5391C332.062 94.7891 333.234 94.2109 334.594 93.8047C335.969 93.3828 337.5 93.1719 339.188 93.1719C341.203 93.1719 343 93.5078 344.578 94.1797C346.172 94.8516 347.43 95.8594 348.352 97.2031C349.273 98.5312 349.734 100.203 349.734 102.219V112.602C349.734 114.258 349.828 115.516 350.016 116.375C350.203 117.219 350.469 117.961 350.812 118.602V119H342.891C342.516 118.219 342.234 117.266 342.047 116.141C341.875 115 341.789 113.828 341.789 112.625ZM342.75 103.508L342.797 107.727H339.305C338.57 107.727 337.945 107.828 337.43 108.031C336.93 108.234 336.523 108.516 336.211 108.875C335.914 109.219 335.695 109.609 335.555 110.047C335.43 110.484 335.367 110.945 335.367 111.43C335.367 111.898 335.477 112.32 335.695 112.695C335.93 113.055 336.242 113.336 336.633 113.539C337.023 113.742 337.461 113.844 337.945 113.844C338.82 113.844 339.562 113.68 340.172 113.352C340.797 113.008 341.273 112.594 341.602 112.109C341.93 111.625 342.094 111.172 342.094 110.75L343.828 113.984C343.516 114.609 343.156 115.242 342.75 115.883C342.359 116.523 341.867 117.117 341.273 117.664C340.695 118.195 339.984 118.633 339.141 118.977C338.297 119.305 337.273 119.469 336.07 119.469C334.508 119.469 333.07 119.148 331.758 118.508C330.461 117.867 329.422 116.977 328.641 115.836C327.859 114.68 327.469 113.352 327.469 111.852C327.469 110.539 327.703 109.367 328.172 108.336C328.656 107.305 329.383 106.43 330.352 105.711C331.32 104.992 332.555 104.445 334.055 104.07C335.555 103.695 337.32 103.508 339.352 103.508H342.75ZM367.477 93.6406V99.125H352.195V93.6406H367.477ZM355.406 87.3359H363.305V110.727C363.305 111.398 363.383 111.922 363.539 112.297C363.695 112.656 363.961 112.914 364.336 113.07C364.727 113.211 365.242 113.281 365.883 113.281C366.336 113.281 366.711 113.273 367.008 113.258C367.305 113.227 367.586 113.188 367.852 113.141V118.789C367.18 119.008 366.477 119.172 365.742 119.281C365.008 119.406 364.227 119.469 363.398 119.469C361.711 119.469 360.266 119.203 359.062 118.672C357.875 118.141 356.969 117.305 356.344 116.164C355.719 115.023 355.406 113.539 355.406 111.711V87.3359ZM378.961 93.6406V119H371.039V93.6406H378.961ZM370.57 87.1016C370.57 85.9766 370.977 85.0547 371.789 84.3359C372.602 83.6172 373.656 83.2578 374.953 83.2578C376.25 83.2578 377.305 83.6172 378.117 84.3359C378.93 85.0547 379.336 85.9766 379.336 87.1016C379.336 88.2266 378.93 89.1484 378.117 89.8672C377.305 90.5859 376.25 90.9453 374.953 90.9453C373.656 90.9453 372.602 90.5859 371.789 89.8672C370.977 89.1484 370.57 88.2266 370.57 87.1016ZM382.852 106.578V106.086C382.852 104.227 383.117 102.516 383.648 100.953C384.18 99.375 384.961 98.0078 385.992 96.8516C387.023 95.6953 388.297 94.7969 389.812 94.1562C391.328 93.5 393.078 93.1719 395.062 93.1719C397.062 93.1719 398.82 93.5 400.336 94.1562C401.867 94.7969 403.148 95.6953 404.18 96.8516C405.211 98.0078 405.992 99.375 406.523 100.953C407.055 102.516 407.32 104.227 407.32 106.086V106.578C407.32 108.422 407.055 110.133 406.523 111.711C405.992 113.273 405.211 114.641 404.18 115.812C403.148 116.969 401.875 117.867 400.359 118.508C398.844 119.148 397.094 119.469 395.109 119.469C393.125 119.469 391.367 119.148 389.836 118.508C388.305 117.867 387.023 116.969 385.992 115.812C384.961 114.641 384.18 113.273 383.648 111.711C383.117 110.133 382.852 108.422 382.852 106.578ZM390.75 106.086V106.578C390.75 107.531 390.82 108.422 390.961 109.25C391.102 110.078 391.336 110.805 391.664 111.43C391.992 112.039 392.438 112.516 393 112.859C393.562 113.203 394.266 113.375 395.109 113.375C395.938 113.375 396.625 113.203 397.172 112.859C397.734 112.516 398.18 112.039 398.508 111.43C398.836 110.805 399.07 110.078 399.211 109.25C399.352 108.422 399.422 107.531 399.422 106.578V106.086C399.422 105.164 399.352 104.297 399.211 103.484C399.07 102.656 398.836 101.93 398.508 101.305C398.18 100.664 397.734 100.164 397.172 99.8047C396.609 99.4453 395.906 99.2656 395.062 99.2656C394.234 99.2656 393.539 99.4453 392.977 99.8047C392.43 100.164 391.992 100.664 391.664 101.305C391.336 101.93 391.102 102.656 390.961 103.484C390.82 104.297 390.75 105.164 390.75 106.086ZM418.594 99.0547V119H410.695V93.6406H418.102L418.594 99.0547ZM417.656 105.453L415.805 105.5C415.805 103.562 416.039 101.836 416.508 100.32C416.977 98.7891 417.641 97.4922 418.5 96.4297C419.359 95.3672 420.383 94.5625 421.57 94.0156C422.773 93.4531 424.109 93.1719 425.578 93.1719C426.75 93.1719 427.82 93.3438 428.789 93.6875C429.773 94.0312 430.617 94.5859 431.32 95.3516C432.039 96.1172 432.586 97.1328 432.961 98.3984C433.352 99.6484 433.547 101.195 433.547 103.039V119H425.602V103.016C425.602 102 425.461 101.227 425.18 100.695C424.898 100.148 424.492 99.7734 423.961 99.5703C423.43 99.3672 422.781 99.2656 422.016 99.2656C421.203 99.2656 420.516 99.4219 419.953 99.7344C419.391 100.047 418.938 100.484 418.594 101.047C418.266 101.594 418.023 102.242 417.867 102.992C417.727 103.742 417.656 104.562 417.656 105.453Z" fill="black"/>
<path d="M1134 0H1348C1356.28 0 1363 6.71573 1363 15V148C1363 156.284 1356.28 163 1348 163H1134V0Z" fill="#0CB4FB"/>
<path d="M1281 46.5H1216L1213.5 49V114L1216 116.5H1281L1283.5 114V49L1281 46.5ZM1278.5 111.5H1233.5V101.5H1245C1246.5 104.5 1250 106.5 1253.5 106.5C1259 106.5 1263.5 102 1263.5 96.5C1263.5 91 1259 86.5 1253.5 86.5C1248 86.5 1243.5 91 1243.5 96.5H1228.5V111.5H1218.5V51.5H1228.5V63C1225.5 64.5 1223.5 68 1223.5 71.5C1223.5 77 1228 81.5 1233.5 81.5C1239 81.5 1243.5 77 1243.5 71.5H1253.5C1253.5 77 1258 81.5 1263.5 81.5C1269 81.5 1273.5 77 1273.5 71.5C1273.5 66 1269 61.5 1263.5 61.5C1260 61.5 1256.5 63.5 1255 66.5H1242C1240.5 63.5 1237 61.5 1233.5 61.5V51.5H1278.5V111.5ZM1248.5 96.5C1248.5 93.5 1250.5 91.5 1253.5 91.5C1256.5 91.5 1258.5 93.5 1258.5 96.5C1258.5 99.5 1256.5 101.5 1253.5 101.5C1250.5 101.5 1248.5 99.5 1248.5 96.5ZM1233.5 66.5C1236.5 66.5 1238.5 68.5 1238.5 71.5C1238.5 74.5 1236.5 76.5 1233.5 76.5C1230.5 76.5 1228.5 74.5 1228.5 71.5C1228.5 68.5 1230.5 66.5 1233.5 66.5ZM1263.5 66.5C1266.5 66.5 1268.5 68.5 1268.5 71.5C1268.5 74.5 1266.5 76.5 1263.5 76.5C1260.5 76.5 1258.5 74.5 1258.5 71.5C1258.5 68.5 1260.5 66.5 1263.5 66.5Z" fill="white"/>
</svg>
