<svg width="1363" height="163" viewBox="0 0 1363 163" fill="none" xmlns="http://www.w3.org/2000/svg">
<path d="M0 15C0 6.71573 6.71573 0 15 0H37V163H15C6.71573 163 0 156.284 0 148V15Z" fill="#0CB4FB"/>
<rect width="1097" height="163" transform="translate(37)" fill="#F0F0F0"/>
<path d="M101.906 53.9219L94.3945 51.2383V48.0859L104.602 52.375V54.6367L101.906 53.9219ZM94.3945 56.1719L101.918 53.4297L104.602 52.7852V55.0352L94.3945 59.3242V56.1719ZM119.836 46.8555L115.195 61H111.457L117.797 43.9375H120.176L119.836 46.8555ZM123.691 61L119.039 46.8555L118.664 43.9375H121.066L127.441 61H123.691ZM123.48 54.6484V57.4023H114.469V54.6484H123.48ZM134.051 58.5977C134.465 58.5977 134.832 58.5195 135.152 58.3633C135.473 58.1992 135.723 57.9727 135.902 57.6836C136.09 57.3867 136.188 57.0391 136.195 56.6406H139.371C139.363 57.5312 139.125 58.3242 138.656 59.0195C138.188 59.707 137.559 60.25 136.77 60.6484C135.98 61.0391 135.098 61.2344 134.121 61.2344C133.137 61.2344 132.277 61.0703 131.543 60.7422C130.816 60.4141 130.211 59.9609 129.727 59.3828C129.242 58.7969 128.879 58.1172 128.637 57.3438C128.395 56.5625 128.273 55.7266 128.273 54.8359V54.4961C128.273 53.5977 128.395 52.7617 128.637 51.9883C128.879 51.207 129.242 50.5273 129.727 49.9492C130.211 49.3633 130.816 48.9062 131.543 48.5781C132.27 48.25 133.121 48.0859 134.098 48.0859C135.137 48.0859 136.047 48.2852 136.828 48.6836C137.617 49.082 138.234 49.6523 138.68 50.3945C139.133 51.1289 139.363 52 139.371 53.0078H136.195C136.188 52.5859 136.098 52.2031 135.926 51.8594C135.762 51.5156 135.52 51.2422 135.199 51.0391C134.887 50.8281 134.5 50.7227 134.039 50.7227C133.547 50.7227 133.145 50.8281 132.832 51.0391C132.52 51.2422 132.277 51.5234 132.105 51.8828C131.934 52.2344 131.812 52.6367 131.742 53.0898C131.68 53.5352 131.648 54.0039 131.648 54.4961V54.8359C131.648 55.3281 131.68 55.8008 131.742 56.2539C131.805 56.707 131.922 57.1094 132.094 57.4609C132.273 57.8125 132.52 58.0898 132.832 58.293C133.145 58.4961 133.551 58.5977 134.051 58.5977ZM146.566 58.5977C146.98 58.5977 147.348 58.5195 147.668 58.3633C147.988 58.1992 148.238 57.9727 148.418 57.6836C148.605 57.3867 148.703 57.0391 148.711 56.6406H151.887C151.879 57.5312 151.641 58.3242 151.172 59.0195C150.703 59.707 150.074 60.25 149.285 60.6484C148.496 61.0391 147.613 61.2344 146.637 61.2344C145.652 61.2344 144.793 61.0703 144.059 60.7422C143.332 60.4141 142.727 59.9609 142.242 59.3828C141.758 58.7969 141.395 58.1172 141.152 57.3438C140.91 56.5625 140.789 55.7266 140.789 54.8359V54.4961C140.789 53.5977 140.91 52.7617 141.152 51.9883C141.395 51.207 141.758 50.5273 142.242 49.9492C142.727 49.3633 143.332 48.9062 144.059 48.5781C144.785 48.25 145.637 48.0859 146.613 48.0859C147.652 48.0859 148.562 48.2852 149.344 48.6836C150.133 49.082 150.75 49.6523 151.195 50.3945C151.648 51.1289 151.879 52 151.887 53.0078H148.711C148.703 52.5859 148.613 52.2031 148.441 51.8594C148.277 51.5156 148.035 51.2422 147.715 51.0391C147.402 50.8281 147.016 50.7227 146.555 50.7227C146.062 50.7227 145.66 50.8281 145.348 51.0391C145.035 51.2422 144.793 51.5234 144.621 51.8828C144.449 52.2344 144.328 52.6367 144.258 53.0898C144.195 53.5352 144.164 54.0039 144.164 54.4961V54.8359C144.164 55.3281 144.195 55.8008 144.258 56.2539C144.32 56.707 144.438 57.1094 144.609 57.4609C144.789 57.8125 145.035 58.0898 145.348 58.293C145.66 58.4961 146.066 58.5977 146.566 58.5977ZM159.68 61.2344C158.695 61.2344 157.812 61.0781 157.031 60.7656C156.25 60.4453 155.586 60.0039 155.039 59.4414C154.5 58.8789 154.086 58.2266 153.797 57.4844C153.508 56.7344 153.363 55.9375 153.363 55.0938V54.625C153.363 53.6641 153.5 52.7852 153.773 51.9883C154.047 51.1914 154.438 50.5 154.945 49.9141C155.461 49.3281 156.086 48.8789 156.82 48.5664C157.555 48.2461 158.383 48.0859 159.305 48.0859C160.203 48.0859 161 48.2344 161.695 48.5312C162.391 48.8281 162.973 49.25 163.441 49.7969C163.918 50.3438 164.277 51 164.52 51.7656C164.762 52.5234 164.883 53.3672 164.883 54.2969V55.7031H154.805V53.4531H161.566V53.1953C161.566 52.7266 161.48 52.3086 161.309 51.9414C161.145 51.5664 160.895 51.2695 160.559 51.0508C160.223 50.832 159.793 50.7227 159.27 50.7227C158.824 50.7227 158.441 50.8203 158.121 51.0156C157.801 51.2109 157.539 51.4844 157.336 51.8359C157.141 52.1875 156.992 52.6016 156.891 53.0781C156.797 53.5469 156.75 54.0625 156.75 54.625V55.0938C156.75 55.6016 156.82 56.0703 156.961 56.5C157.109 56.9297 157.316 57.3008 157.582 57.6133C157.855 57.9258 158.184 58.168 158.566 58.3398C158.957 58.5117 159.398 58.5977 159.891 58.5977C160.5 58.5977 161.066 58.4805 161.59 58.2461C162.121 58.0039 162.578 57.6406 162.961 57.1562L164.602 58.9375C164.336 59.3203 163.973 59.6875 163.512 60.0391C163.059 60.3906 162.512 60.6797 161.871 60.9062C161.23 61.125 160.5 61.2344 159.68 61.2344ZM173.66 57.4961C173.66 57.2539 173.59 57.0352 173.449 56.8398C173.309 56.6445 173.047 56.4648 172.664 56.3008C172.289 56.1289 171.746 55.9727 171.035 55.832C170.395 55.6914 169.797 55.5156 169.242 55.3047C168.695 55.0859 168.219 54.8242 167.812 54.5195C167.414 54.2148 167.102 53.8555 166.875 53.4414C166.648 53.0195 166.535 52.5391 166.535 52C166.535 51.4688 166.648 50.9688 166.875 50.5C167.109 50.0312 167.441 49.6172 167.871 49.2578C168.309 48.8906 168.84 48.6055 169.465 48.4023C170.098 48.1914 170.809 48.0859 171.598 48.0859C172.699 48.0859 173.645 48.2617 174.434 48.6133C175.23 48.9648 175.84 49.4492 176.262 50.0664C176.691 50.6758 176.906 51.3711 176.906 52.1523H173.531C173.531 51.8242 173.461 51.5312 173.32 51.2734C173.188 51.0078 172.977 50.8008 172.688 50.6523C172.406 50.4961 172.039 50.418 171.586 50.418C171.211 50.418 170.887 50.4844 170.613 50.6172C170.34 50.7422 170.129 50.9141 169.98 51.1328C169.84 51.3438 169.77 51.5781 169.77 51.8359C169.77 52.0312 169.809 52.207 169.887 52.3633C169.973 52.5117 170.109 52.6484 170.297 52.7734C170.484 52.8984 170.727 53.0156 171.023 53.125C171.328 53.2266 171.703 53.3203 172.148 53.4062C173.062 53.5938 173.879 53.8398 174.598 54.1445C175.316 54.4414 175.887 54.8477 176.309 55.3633C176.73 55.8711 176.941 56.5391 176.941 57.3672C176.941 57.9297 176.816 58.4453 176.566 58.9141C176.316 59.3828 175.957 59.793 175.488 60.1445C175.02 60.4883 174.457 60.7578 173.801 60.9531C173.152 61.1406 172.422 61.2344 171.609 61.2344C170.43 61.2344 169.43 61.0234 168.609 60.6016C167.797 60.1797 167.18 59.6445 166.758 58.9961C166.344 58.3398 166.137 57.668 166.137 56.9805H169.336C169.352 57.4414 169.469 57.8125 169.688 58.0938C169.914 58.375 170.199 58.5781 170.543 58.7031C170.895 58.8281 171.273 58.8906 171.68 58.8906C172.117 58.8906 172.48 58.832 172.77 58.7148C173.059 58.5898 173.277 58.4258 173.426 58.2227C173.582 58.0117 173.66 57.7695 173.66 57.4961ZM185.988 57.4961C185.988 57.2539 185.918 57.0352 185.777 56.8398C185.637 56.6445 185.375 56.4648 184.992 56.3008C184.617 56.1289 184.074 55.9727 183.363 55.832C182.723 55.6914 182.125 55.5156 181.57 55.3047C181.023 55.0859 180.547 54.8242 180.141 54.5195C179.742 54.2148 179.43 53.8555 179.203 53.4414C178.977 53.0195 178.863 52.5391 178.863 52C178.863 51.4688 178.977 50.9688 179.203 50.5C179.438 50.0312 179.77 49.6172 180.199 49.2578C180.637 48.8906 181.168 48.6055 181.793 48.4023C182.426 48.1914 183.137 48.0859 183.926 48.0859C185.027 48.0859 185.973 48.2617 186.762 48.6133C187.559 48.9648 188.168 49.4492 188.59 50.0664C189.02 50.6758 189.234 51.3711 189.234 52.1523H185.859C185.859 51.8242 185.789 51.5312 185.648 51.2734C185.516 51.0078 185.305 50.8008 185.016 50.6523C184.734 50.4961 184.367 50.418 183.914 50.418C183.539 50.418 183.215 50.4844 182.941 50.6172C182.668 50.7422 182.457 50.9141 182.309 51.1328C182.168 51.3438 182.098 51.5781 182.098 51.8359C182.098 52.0312 182.137 52.207 182.215 52.3633C182.301 52.5117 182.438 52.6484 182.625 52.7734C182.812 52.8984 183.055 53.0156 183.352 53.125C183.656 53.2266 184.031 53.3203 184.477 53.4062C185.391 53.5938 186.207 53.8398 186.926 54.1445C187.645 54.4414 188.215 54.8477 188.637 55.3633C189.059 55.8711 189.27 56.5391 189.27 57.3672C189.27 57.9297 189.145 58.4453 188.895 58.9141C188.645 59.3828 188.285 59.793 187.816 60.1445C187.348 60.4883 186.785 60.7578 186.129 60.9531C185.48 61.1406 184.75 61.2344 183.938 61.2344C182.758 61.2344 181.758 61.0234 180.938 60.6016C180.125 60.1797 179.508 59.6445 179.086 58.9961C178.672 58.3398 178.465 57.668 178.465 56.9805H181.664C181.68 57.4414 181.797 57.8125 182.016 58.0938C182.242 58.375 182.527 58.5781 182.871 58.7031C183.223 58.8281 183.602 58.8906 184.008 58.8906C184.445 58.8906 184.809 58.832 185.098 58.7148C185.387 58.5898 185.605 58.4258 185.754 58.2227C185.91 58.0117 185.988 57.7695 185.988 57.4961ZM199.301 43.9375V61H195.797V43.9375H199.301ZM204.551 43.9375V46.6914H190.629V43.9375H204.551ZM211.078 61.2344C210.094 61.2344 209.211 61.0781 208.43 60.7656C207.648 60.4453 206.984 60.0039 206.438 59.4414C205.898 58.8789 205.484 58.2266 205.195 57.4844C204.906 56.7344 204.762 55.9375 204.762 55.0938V54.625C204.762 53.6641 204.898 52.7852 205.172 51.9883C205.445 51.1914 205.836 50.5 206.344 49.9141C206.859 49.3281 207.484 48.8789 208.219 48.5664C208.953 48.2461 209.781 48.0859 210.703 48.0859C211.602 48.0859 212.398 48.2344 213.094 48.5312C213.789 48.8281 214.371 49.25 214.84 49.7969C215.316 50.3438 215.676 51 215.918 51.7656C216.16 52.5234 216.281 53.3672 216.281 54.2969V55.7031H206.203V53.4531H212.965V53.1953C212.965 52.7266 212.879 52.3086 212.707 51.9414C212.543 51.5664 212.293 51.2695 211.957 51.0508C211.621 50.832 211.191 50.7227 210.668 50.7227C210.223 50.7227 209.84 50.8203 209.52 51.0156C209.199 51.2109 208.938 51.4844 208.734 51.8359C208.539 52.1875 208.391 52.6016 208.289 53.0781C208.195 53.5469 208.148 54.0625 208.148 54.625V55.0938C208.148 55.6016 208.219 56.0703 208.359 56.5C208.508 56.9297 208.715 57.3008 208.98 57.6133C209.254 57.9258 209.582 58.168 209.965 58.3398C210.355 58.5117 210.797 58.5977 211.289 58.5977C211.898 58.5977 212.465 58.4805 212.988 58.2461C213.52 58.0039 213.977 57.6406 214.359 57.1562L216 58.9375C215.734 59.3203 215.371 59.6875 214.91 60.0391C214.457 60.3906 213.91 60.6797 213.27 60.9062C212.629 61.125 211.898 61.2344 211.078 61.2344ZM225.059 57.4961C225.059 57.2539 224.988 57.0352 224.848 56.8398C224.707 56.6445 224.445 56.4648 224.062 56.3008C223.688 56.1289 223.145 55.9727 222.434 55.832C221.793 55.6914 221.195 55.5156 220.641 55.3047C220.094 55.0859 219.617 54.8242 219.211 54.5195C218.812 54.2148 218.5 53.8555 218.273 53.4414C218.047 53.0195 217.934 52.5391 217.934 52C217.934 51.4688 218.047 50.9688 218.273 50.5C218.508 50.0312 218.84 49.6172 219.27 49.2578C219.707 48.8906 220.238 48.6055 220.863 48.4023C221.496 48.1914 222.207 48.0859 222.996 48.0859C224.098 48.0859 225.043 48.2617 225.832 48.6133C226.629 48.9648 227.238 49.4492 227.66 50.0664C228.09 50.6758 228.305 51.3711 228.305 52.1523H224.93C224.93 51.8242 224.859 51.5312 224.719 51.2734C224.586 51.0078 224.375 50.8008 224.086 50.6523C223.805 50.4961 223.438 50.418 222.984 50.418C222.609 50.418 222.285 50.4844 222.012 50.6172C221.738 50.7422 221.527 50.9141 221.379 51.1328C221.238 51.3438 221.168 51.5781 221.168 51.8359C221.168 52.0312 221.207 52.207 221.285 52.3633C221.371 52.5117 221.508 52.6484 221.695 52.7734C221.883 52.8984 222.125 53.0156 222.422 53.125C222.727 53.2266 223.102 53.3203 223.547 53.4062C224.461 53.5938 225.277 53.8398 225.996 54.1445C226.715 54.4414 227.285 54.8477 227.707 55.3633C228.129 55.8711 228.34 56.5391 228.34 57.3672C228.34 57.9297 228.215 58.4453 227.965 58.9141C227.715 59.3828 227.355 59.793 226.887 60.1445C226.418 60.4883 225.855 60.7578 225.199 60.9531C224.551 61.1406 223.82 61.2344 223.008 61.2344C221.828 61.2344 220.828 61.0234 220.008 60.6016C219.195 60.1797 218.578 59.6445 218.156 58.9961C217.742 58.3398 217.535 57.668 217.535 56.9805H220.734C220.75 57.4414 220.867 57.8125 221.086 58.0938C221.312 58.375 221.598 58.5781 221.941 58.7031C222.293 58.8281 222.672 58.8906 223.078 58.8906C223.516 58.8906 223.879 58.832 224.168 58.7148C224.457 58.5898 224.676 58.4258 224.824 58.2227C224.98 58.0117 225.059 57.7695 225.059 57.4961ZM236.742 48.3203V50.7109H229.359V48.3203H236.742ZM231.188 45.1914H234.562V57.1797C234.562 57.5469 234.609 57.8281 234.703 58.0234C234.805 58.2188 234.953 58.3555 235.148 58.4336C235.344 58.5039 235.59 58.5391 235.887 58.5391C236.098 58.5391 236.285 58.5312 236.449 58.5156C236.621 58.4922 236.766 58.4688 236.883 58.4453L236.895 60.9297C236.605 61.0234 236.293 61.0977 235.957 61.1523C235.621 61.207 235.25 61.2344 234.844 61.2344C234.102 61.2344 233.453 61.1133 232.898 60.8711C232.352 60.6211 231.93 60.2227 231.633 59.6758C231.336 59.1289 231.188 58.4102 231.188 57.5195V45.1914Z" fill="#888888"/>
<path d="M112.125 84.875V119H103.898V84.875H112.125ZM122.391 84.875V91.2266H93.8672V84.875H122.391ZM135.68 119.469C133.617 119.469 131.773 119.148 130.148 118.508C128.523 117.852 127.148 116.953 126.023 115.812C124.914 114.672 124.062 113.359 123.469 111.875C122.891 110.391 122.602 108.82 122.602 107.164V106.273C122.602 104.414 122.859 102.695 123.375 101.117C123.891 99.5234 124.656 98.1328 125.672 96.9453C126.688 95.7578 127.961 94.8359 129.492 94.1797C131.023 93.5078 132.805 93.1719 134.836 93.1719C136.633 93.1719 138.242 93.4609 139.664 94.0391C141.086 94.6172 142.289 95.4453 143.273 96.5234C144.273 97.6016 145.031 98.9062 145.547 100.438C146.078 101.969 146.344 103.688 146.344 105.594V108.805H125.625V103.859H138.633V103.25C138.648 102.406 138.5 101.688 138.188 101.094C137.891 100.5 137.453 100.047 136.875 99.7344C136.297 99.4219 135.594 99.2656 134.766 99.2656C133.906 99.2656 133.195 99.4531 132.633 99.8281C132.086 100.203 131.656 100.719 131.344 101.375C131.047 102.016 130.836 102.758 130.711 103.602C130.586 104.445 130.523 105.336 130.523 106.273V107.164C130.523 108.102 130.648 108.953 130.898 109.719C131.164 110.484 131.539 111.141 132.023 111.688C132.523 112.219 133.117 112.633 133.805 112.93C134.508 113.227 135.305 113.375 136.195 113.375C137.273 113.375 138.336 113.172 139.383 112.766C140.43 112.359 141.328 111.688 142.078 110.75L145.664 115.016C145.148 115.75 144.414 116.461 143.461 117.148C142.523 117.836 141.398 118.398 140.086 118.836C138.773 119.258 137.305 119.469 135.68 119.469ZM160.266 113.375C161 113.375 161.625 113.242 162.141 112.977C162.672 112.695 163.07 112.305 163.336 111.805C163.617 111.289 163.75 110.672 163.734 109.953H171.164C171.18 111.859 170.711 113.531 169.758 114.969C168.82 116.391 167.539 117.5 165.914 118.297C164.305 119.078 162.484 119.469 160.453 119.469C158.469 119.469 156.734 119.148 155.25 118.508C153.766 117.852 152.523 116.945 151.523 115.789C150.539 114.617 149.797 113.25 149.297 111.688C148.812 110.125 148.57 108.43 148.57 106.602V106.062C148.57 104.234 148.812 102.539 149.297 100.977C149.797 99.3984 150.539 98.0312 151.523 96.875C152.523 95.7031 153.758 94.7969 155.227 94.1562C156.711 93.5 158.438 93.1719 160.406 93.1719C162.516 93.1719 164.375 93.5703 165.984 94.3672C167.609 95.1641 168.883 96.3203 169.805 97.8359C170.727 99.3516 171.18 101.188 171.164 103.344H163.734C163.75 102.578 163.633 101.891 163.383 101.281C163.133 100.672 162.742 100.188 162.211 99.8281C161.695 99.4531 161.031 99.2656 160.219 99.2656C159.406 99.2656 158.75 99.4453 158.25 99.8047C157.75 100.164 157.367 100.664 157.102 101.305C156.852 101.93 156.68 102.648 156.586 103.461C156.508 104.273 156.469 105.141 156.469 106.062V106.602C156.469 107.539 156.508 108.422 156.586 109.25C156.68 110.062 156.859 110.781 157.125 111.406C157.391 112.016 157.773 112.5 158.273 112.859C158.773 113.203 159.438 113.375 160.266 113.375ZM182.273 83V119H174.375V83H182.273ZM181.336 105.453L179.484 105.5C179.484 103.719 179.703 102.078 180.141 100.578C180.578 99.0781 181.203 97.7734 182.016 96.6641C182.828 95.5547 183.805 94.6953 184.945 94.0859C186.086 93.4766 187.352 93.1719 188.742 93.1719C189.992 93.1719 191.133 93.3516 192.164 93.7109C193.211 94.0703 194.109 94.6484 194.859 95.4453C195.625 96.2422 196.211 97.2812 196.617 98.5625C197.039 99.8438 197.25 101.406 197.25 103.25V119H189.305V103.203C189.305 102.172 189.156 101.375 188.859 100.812C188.578 100.234 188.172 99.8359 187.641 99.6172C187.109 99.3828 186.461 99.2656 185.695 99.2656C184.773 99.2656 184.023 99.4219 183.445 99.7344C182.867 100.047 182.422 100.484 182.109 101.047C181.812 101.594 181.609 102.242 181.5 102.992C181.391 103.742 181.336 104.562 181.336 105.453ZM231.539 109.93C231.539 109.398 231.461 108.922 231.305 108.5C231.148 108.062 230.859 107.656 230.438 107.281C230.016 106.906 229.406 106.531 228.609 106.156C227.828 105.766 226.797 105.359 225.516 104.938C224.016 104.438 222.57 103.875 221.18 103.25C219.789 102.609 218.547 101.867 217.453 101.023C216.359 100.164 215.492 99.1641 214.852 98.0234C214.211 96.8672 213.891 95.5234 213.891 93.9922C213.891 92.5234 214.219 91.2031 214.875 90.0312C215.531 88.8438 216.445 87.8359 217.617 87.0078C218.805 86.1641 220.195 85.5234 221.789 85.0859C223.383 84.6328 225.125 84.4062 227.016 84.4062C229.516 84.4062 231.719 84.8438 233.625 85.7188C235.547 86.5781 237.047 87.8047 238.125 89.3984C239.219 90.9766 239.766 92.8438 239.766 95H231.586C231.586 94.1406 231.406 93.3828 231.047 92.7266C230.703 92.0703 230.18 91.5547 229.477 91.1797C228.773 90.8047 227.891 90.6172 226.828 90.6172C225.797 90.6172 224.93 90.7734 224.227 91.0859C223.523 91.3984 222.992 91.8203 222.633 92.3516C222.273 92.8672 222.094 93.4375 222.094 94.0625C222.094 94.5781 222.234 95.0469 222.516 95.4688C222.812 95.875 223.227 96.2578 223.758 96.6172C224.305 96.9766 224.961 97.3203 225.727 97.6484C226.508 97.9766 227.383 98.2969 228.352 98.6094C230.164 99.1875 231.773 99.8359 233.18 100.555C234.602 101.258 235.797 102.062 236.766 102.969C237.75 103.859 238.492 104.875 238.992 106.016C239.508 107.156 239.766 108.445 239.766 109.883C239.766 111.414 239.469 112.773 238.875 113.961C238.281 115.148 237.43 116.156 236.32 116.984C235.211 117.797 233.883 118.414 232.336 118.836C230.789 119.258 229.062 119.469 227.156 119.469C225.406 119.469 223.68 119.25 221.977 118.812C220.289 118.359 218.758 117.672 217.383 116.75C216.008 115.812 214.906 114.617 214.078 113.164C213.266 111.695 212.859 109.953 212.859 107.938H221.109C221.109 108.938 221.242 109.781 221.508 110.469C221.773 111.156 222.164 111.711 222.68 112.133C223.195 112.539 223.828 112.836 224.578 113.023C225.328 113.195 226.188 113.281 227.156 113.281C228.203 113.281 229.047 113.133 229.688 112.836C230.328 112.523 230.797 112.117 231.094 111.617C231.391 111.102 231.539 110.539 231.539 109.93ZM256.992 93.6406V99.125H241.711V93.6406H256.992ZM244.922 87.3359H252.82V110.727C252.82 111.398 252.898 111.922 253.055 112.297C253.211 112.656 253.477 112.914 253.852 113.07C254.242 113.211 254.758 113.281 255.398 113.281C255.852 113.281 256.227 113.273 256.523 113.258C256.82 113.227 257.102 113.188 257.367 113.141V118.789C256.695 119.008 255.992 119.172 255.258 119.281C254.523 119.406 253.742 119.469 252.914 119.469C251.227 119.469 249.781 119.203 248.578 118.672C247.391 118.141 246.484 117.305 245.859 116.164C245.234 115.023 244.922 113.539 244.922 111.711V87.3359ZM273.305 112.625V102.172C273.305 101.453 273.203 100.836 273 100.32C272.797 99.8047 272.477 99.4062 272.039 99.125C271.602 98.8281 271.016 98.6797 270.281 98.6797C269.688 98.6797 269.18 98.7812 268.758 98.9844C268.336 99.1875 268.016 99.4922 267.797 99.8984C267.578 100.305 267.469 100.82 267.469 101.445H259.57C259.57 100.273 259.828 99.1875 260.344 98.1875C260.875 97.1719 261.625 96.2891 262.594 95.5391C263.578 94.7891 264.75 94.2109 266.109 93.8047C267.484 93.3828 269.016 93.1719 270.703 93.1719C272.719 93.1719 274.516 93.5078 276.094 94.1797C277.688 94.8516 278.945 95.8594 279.867 97.2031C280.789 98.5312 281.25 100.203 281.25 102.219V112.602C281.25 114.258 281.344 115.516 281.531 116.375C281.719 117.219 281.984 117.961 282.328 118.602V119H274.406C274.031 118.219 273.75 117.266 273.562 116.141C273.391 115 273.305 113.828 273.305 112.625ZM274.266 103.508L274.312 107.727H270.82C270.086 107.727 269.461 107.828 268.945 108.031C268.445 108.234 268.039 108.516 267.727 108.875C267.43 109.219 267.211 109.609 267.07 110.047C266.945 110.484 266.883 110.945 266.883 111.43C266.883 111.898 266.992 112.32 267.211 112.695C267.445 113.055 267.758 113.336 268.148 113.539C268.539 113.742 268.977 113.844 269.461 113.844C270.336 113.844 271.078 113.68 271.688 113.352C272.312 113.008 272.789 112.594 273.117 112.109C273.445 111.625 273.609 111.172 273.609 110.75L275.344 113.984C275.031 114.609 274.672 115.242 274.266 115.883C273.875 116.523 273.383 117.117 272.789 117.664C272.211 118.195 271.5 118.633 270.656 118.977C269.812 119.305 268.789 119.469 267.586 119.469C266.023 119.469 264.586 119.148 263.273 118.508C261.977 117.867 260.938 116.977 260.156 115.836C259.375 114.68 258.984 113.352 258.984 111.852C258.984 110.539 259.219 109.367 259.688 108.336C260.172 107.305 260.898 106.43 261.867 105.711C262.836 104.992 264.07 104.445 265.57 104.07C267.07 103.695 268.836 103.508 270.867 103.508H274.266ZM296.344 113.375C297.078 113.375 297.703 113.242 298.219 112.977C298.75 112.695 299.148 112.305 299.414 111.805C299.695 111.289 299.828 110.672 299.812 109.953H307.242C307.258 111.859 306.789 113.531 305.836 114.969C304.898 116.391 303.617 117.5 301.992 118.297C300.383 119.078 298.562 119.469 296.531 119.469C294.547 119.469 292.812 119.148 291.328 118.508C289.844 117.852 288.602 116.945 287.602 115.789C286.617 114.617 285.875 113.25 285.375 111.688C284.891 110.125 284.648 108.43 284.648 106.602V106.062C284.648 104.234 284.891 102.539 285.375 100.977C285.875 99.3984 286.617 98.0312 287.602 96.875C288.602 95.7031 289.836 94.7969 291.305 94.1562C292.789 93.5 294.516 93.1719 296.484 93.1719C298.594 93.1719 300.453 93.5703 302.062 94.3672C303.688 95.1641 304.961 96.3203 305.883 97.8359C306.805 99.3516 307.258 101.188 307.242 103.344H299.812C299.828 102.578 299.711 101.891 299.461 101.281C299.211 100.672 298.82 100.188 298.289 99.8281C297.773 99.4531 297.109 99.2656 296.297 99.2656C295.484 99.2656 294.828 99.4453 294.328 99.8047C293.828 100.164 293.445 100.664 293.18 101.305C292.93 101.93 292.758 102.648 292.664 103.461C292.586 104.273 292.547 105.141 292.547 106.062V106.602C292.547 107.539 292.586 108.422 292.664 109.25C292.758 110.062 292.938 110.781 293.203 111.406C293.469 112.016 293.852 112.5 294.352 112.859C294.852 113.203 295.516 113.375 296.344 113.375ZM318.586 82.9766V119H310.688V82.9766H318.586ZM334.805 93.6406L323.789 106.555L318.023 112.32L314.578 107.305L319.383 101.047L325.336 93.6406H334.805ZM326.344 119L319.57 107.445L325.406 103.297L335.391 119H326.344Z" fill="black"/>
<path d="M1134 0H1348C1356.28 0 1363 6.71573 1363 15V148C1363 156.284 1356.28 163 1348 163H1134V0Z" fill="#0CB4FB"/>
<path fill-rule="evenodd" clip-rule="evenodd" d="M1218.75 53C1218.62 53 1218.49 53.0527 1218.4 53.1464C1218.3 53.2402 1218.25 53.3674 1218.25 53.5V109.5C1218.25 109.633 1218.3 109.76 1218.4 109.854C1218.49 109.947 1218.62 110 1218.75 110H1278.25C1278.38 110 1278.51 109.947 1278.6 109.854C1278.7 109.76 1278.75 109.633 1278.75 109.5V64C1278.75 63.8674 1278.7 63.7402 1278.6 63.6464C1278.51 63.5527 1278.38 63.5 1278.25 63.5H1248.5C1247.61 63.5 1246.77 63.1045 1246.2 62.4206L1238.34 53H1218.75ZM1214.15 48.9038C1215.37 47.6848 1217.03 47 1218.75 47H1239.75C1240.64 47 1241.48 47.3955 1242.05 48.0794L1249.91 57.5H1278.25C1279.97 57.5 1281.63 58.1848 1282.85 59.4038C1284.07 60.6228 1284.75 62.2761 1284.75 64V109.5C1284.75 111.224 1284.07 112.877 1282.85 114.096C1281.63 115.315 1279.97 116 1278.25 116H1218.75C1217.03 116 1215.37 115.315 1214.15 114.096C1212.93 112.877 1212.25 111.224 1212.25 109.5V53.5C1212.25 51.7761 1212.93 50.1228 1214.15 48.9038Z" fill="white"/>
<path fill-rule="evenodd" clip-rule="evenodd" d="M1243.97 75.5251C1245.34 76.892 1245.34 79.108 1243.97 80.4749L1237.7 86.75L1243.97 93.0251C1245.34 94.392 1245.34 96.608 1243.97 97.9749C1242.61 99.3417 1240.39 99.3417 1239.03 97.9749L1230.28 89.2249C1228.91 87.858 1228.91 85.642 1230.28 84.2751L1239.03 75.5251C1240.39 74.1583 1242.61 74.1583 1243.97 75.5251Z" fill="white"/>
<path fill-rule="evenodd" clip-rule="evenodd" d="M1252.28 97.9749C1250.91 96.608 1250.91 94.392 1252.28 93.0251L1258.55 86.75L1252.28 80.4749C1250.91 79.108 1250.91 76.892 1252.28 75.5251C1253.64 74.1583 1255.86 74.1583 1257.22 75.5251L1265.97 84.2751C1267.34 85.642 1267.34 87.858 1265.97 89.2249L1257.22 97.9749C1255.86 99.3417 1253.64 99.3417 1252.28 97.9749Z" fill="white"/>
</svg>
