<svg width="1363" height="163" viewBox="0 0 1363 163" fill="none" xmlns="http://www.w3.org/2000/svg">
<path d="M0 15C0 6.71573 6.71573 0 15 0H37V163H15C6.71573 163 0 156.284 0 148V15Z" fill="#0CB4FB"/>
<rect width="1097" height="163" transform="translate(37)" fill="#F0F0F0"/>
<path d="M101.906 53.9219L94.3945 51.2383V48.0859L104.602 52.375V54.6367L101.906 53.9219ZM94.3945 56.1719L101.918 53.4297L104.602 52.7852V55.0352L94.3945 59.3242V56.1719ZM119.836 46.8555L115.195 61H111.457L117.797 43.9375H120.176L119.836 46.8555ZM123.691 61L119.039 46.8555L118.664 43.9375H121.066L127.441 61H123.691ZM123.48 54.6484V57.4023H114.469V54.6484H123.48ZM134.051 58.5977C134.465 58.5977 134.832 58.5195 135.152 58.3633C135.473 58.1992 135.723 57.9727 135.902 57.6836C136.09 57.3867 136.188 57.0391 136.195 56.6406H139.371C139.363 57.5312 139.125 58.3242 138.656 59.0195C138.188 59.707 137.559 60.25 136.77 60.6484C135.98 61.0391 135.098 61.2344 134.121 61.2344C133.137 61.2344 132.277 61.0703 131.543 60.7422C130.816 60.4141 130.211 59.9609 129.727 59.3828C129.242 58.7969 128.879 58.1172 128.637 57.3438C128.395 56.5625 128.273 55.7266 128.273 54.8359V54.4961C128.273 53.5977 128.395 52.7617 128.637 51.9883C128.879 51.207 129.242 50.5273 129.727 49.9492C130.211 49.3633 130.816 48.9062 131.543 48.5781C132.27 48.25 133.121 48.0859 134.098 48.0859C135.137 48.0859 136.047 48.2852 136.828 48.6836C137.617 49.082 138.234 49.6523 138.68 50.3945C139.133 51.1289 139.363 52 139.371 53.0078H136.195C136.188 52.5859 136.098 52.2031 135.926 51.8594C135.762 51.5156 135.52 51.2422 135.199 51.0391C134.887 50.8281 134.5 50.7227 134.039 50.7227C133.547 50.7227 133.145 50.8281 132.832 51.0391C132.52 51.2422 132.277 51.5234 132.105 51.8828C131.934 52.2344 131.812 52.6367 131.742 53.0898C131.68 53.5352 131.648 54.0039 131.648 54.4961V54.8359C131.648 55.3281 131.68 55.8008 131.742 56.2539C131.805 56.707 131.922 57.1094 132.094 57.4609C132.273 57.8125 132.52 58.0898 132.832 58.293C133.145 58.4961 133.551 58.5977 134.051 58.5977ZM146.566 58.5977C146.98 58.5977 147.348 58.5195 147.668 58.3633C147.988 58.1992 148.238 57.9727 148.418 57.6836C148.605 57.3867 148.703 57.0391 148.711 56.6406H151.887C151.879 57.5312 151.641 58.3242 151.172 59.0195C150.703 59.707 150.074 60.25 149.285 60.6484C148.496 61.0391 147.613 61.2344 146.637 61.2344C145.652 61.2344 144.793 61.0703 144.059 60.7422C143.332 60.4141 142.727 59.9609 142.242 59.3828C141.758 58.7969 141.395 58.1172 141.152 57.3438C140.91 56.5625 140.789 55.7266 140.789 54.8359V54.4961C140.789 53.5977 140.91 52.7617 141.152 51.9883C141.395 51.207 141.758 50.5273 142.242 49.9492C142.727 49.3633 143.332 48.9062 144.059 48.5781C144.785 48.25 145.637 48.0859 146.613 48.0859C147.652 48.0859 148.562 48.2852 149.344 48.6836C150.133 49.082 150.75 49.6523 151.195 50.3945C151.648 51.1289 151.879 52 151.887 53.0078H148.711C148.703 52.5859 148.613 52.2031 148.441 51.8594C148.277 51.5156 148.035 51.2422 147.715 51.0391C147.402 50.8281 147.016 50.7227 146.555 50.7227C146.062 50.7227 145.66 50.8281 145.348 51.0391C145.035 51.2422 144.793 51.5234 144.621 51.8828C144.449 52.2344 144.328 52.6367 144.258 53.0898C144.195 53.5352 144.164 54.0039 144.164 54.4961V54.8359C144.164 55.3281 144.195 55.8008 144.258 56.2539C144.32 56.707 144.438 57.1094 144.609 57.4609C144.789 57.8125 145.035 58.0898 145.348 58.293C145.66 58.4961 146.066 58.5977 146.566 58.5977ZM159.68 61.2344C158.695 61.2344 157.812 61.0781 157.031 60.7656C156.25 60.4453 155.586 60.0039 155.039 59.4414C154.5 58.8789 154.086 58.2266 153.797 57.4844C153.508 56.7344 153.363 55.9375 153.363 55.0938V54.625C153.363 53.6641 153.5 52.7852 153.773 51.9883C154.047 51.1914 154.438 50.5 154.945 49.9141C155.461 49.3281 156.086 48.8789 156.82 48.5664C157.555 48.2461 158.383 48.0859 159.305 48.0859C160.203 48.0859 161 48.2344 161.695 48.5312C162.391 48.8281 162.973 49.25 163.441 49.7969C163.918 50.3438 164.277 51 164.52 51.7656C164.762 52.5234 164.883 53.3672 164.883 54.2969V55.7031H154.805V53.4531H161.566V53.1953C161.566 52.7266 161.48 52.3086 161.309 51.9414C161.145 51.5664 160.895 51.2695 160.559 51.0508C160.223 50.832 159.793 50.7227 159.27 50.7227C158.824 50.7227 158.441 50.8203 158.121 51.0156C157.801 51.2109 157.539 51.4844 157.336 51.8359C157.141 52.1875 156.992 52.6016 156.891 53.0781C156.797 53.5469 156.75 54.0625 156.75 54.625V55.0938C156.75 55.6016 156.82 56.0703 156.961 56.5C157.109 56.9297 157.316 57.3008 157.582 57.6133C157.855 57.9258 158.184 58.168 158.566 58.3398C158.957 58.5117 159.398 58.5977 159.891 58.5977C160.5 58.5977 161.066 58.4805 161.59 58.2461C162.121 58.0039 162.578 57.6406 162.961 57.1562L164.602 58.9375C164.336 59.3203 163.973 59.6875 163.512 60.0391C163.059 60.3906 162.512 60.6797 161.871 60.9062C161.23 61.125 160.5 61.2344 159.68 61.2344ZM173.66 57.4961C173.66 57.2539 173.59 57.0352 173.449 56.8398C173.309 56.6445 173.047 56.4648 172.664 56.3008C172.289 56.1289 171.746 55.9727 171.035 55.832C170.395 55.6914 169.797 55.5156 169.242 55.3047C168.695 55.0859 168.219 54.8242 167.812 54.5195C167.414 54.2148 167.102 53.8555 166.875 53.4414C166.648 53.0195 166.535 52.5391 166.535 52C166.535 51.4688 166.648 50.9688 166.875 50.5C167.109 50.0312 167.441 49.6172 167.871 49.2578C168.309 48.8906 168.84 48.6055 169.465 48.4023C170.098 48.1914 170.809 48.0859 171.598 48.0859C172.699 48.0859 173.645 48.2617 174.434 48.6133C175.23 48.9648 175.84 49.4492 176.262 50.0664C176.691 50.6758 176.906 51.3711 176.906 52.1523H173.531C173.531 51.8242 173.461 51.5312 173.32 51.2734C173.188 51.0078 172.977 50.8008 172.688 50.6523C172.406 50.4961 172.039 50.418 171.586 50.418C171.211 50.418 170.887 50.4844 170.613 50.6172C170.34 50.7422 170.129 50.9141 169.98 51.1328C169.84 51.3438 169.77 51.5781 169.77 51.8359C169.77 52.0312 169.809 52.207 169.887 52.3633C169.973 52.5117 170.109 52.6484 170.297 52.7734C170.484 52.8984 170.727 53.0156 171.023 53.125C171.328 53.2266 171.703 53.3203 172.148 53.4062C173.062 53.5938 173.879 53.8398 174.598 54.1445C175.316 54.4414 175.887 54.8477 176.309 55.3633C176.73 55.8711 176.941 56.5391 176.941 57.3672C176.941 57.9297 176.816 58.4453 176.566 58.9141C176.316 59.3828 175.957 59.793 175.488 60.1445C175.02 60.4883 174.457 60.7578 173.801 60.9531C173.152 61.1406 172.422 61.2344 171.609 61.2344C170.43 61.2344 169.43 61.0234 168.609 60.6016C167.797 60.1797 167.18 59.6445 166.758 58.9961C166.344 58.3398 166.137 57.668 166.137 56.9805H169.336C169.352 57.4414 169.469 57.8125 169.688 58.0938C169.914 58.375 170.199 58.5781 170.543 58.7031C170.895 58.8281 171.273 58.8906 171.68 58.8906C172.117 58.8906 172.48 58.832 172.77 58.7148C173.059 58.5898 173.277 58.4258 173.426 58.2227C173.582 58.0117 173.66 57.7695 173.66 57.4961ZM185.988 57.4961C185.988 57.2539 185.918 57.0352 185.777 56.8398C185.637 56.6445 185.375 56.4648 184.992 56.3008C184.617 56.1289 184.074 55.9727 183.363 55.832C182.723 55.6914 182.125 55.5156 181.57 55.3047C181.023 55.0859 180.547 54.8242 180.141 54.5195C179.742 54.2148 179.43 53.8555 179.203 53.4414C178.977 53.0195 178.863 52.5391 178.863 52C178.863 51.4688 178.977 50.9688 179.203 50.5C179.438 50.0312 179.77 49.6172 180.199 49.2578C180.637 48.8906 181.168 48.6055 181.793 48.4023C182.426 48.1914 183.137 48.0859 183.926 48.0859C185.027 48.0859 185.973 48.2617 186.762 48.6133C187.559 48.9648 188.168 49.4492 188.59 50.0664C189.02 50.6758 189.234 51.3711 189.234 52.1523H185.859C185.859 51.8242 185.789 51.5312 185.648 51.2734C185.516 51.0078 185.305 50.8008 185.016 50.6523C184.734 50.4961 184.367 50.418 183.914 50.418C183.539 50.418 183.215 50.4844 182.941 50.6172C182.668 50.7422 182.457 50.9141 182.309 51.1328C182.168 51.3438 182.098 51.5781 182.098 51.8359C182.098 52.0312 182.137 52.207 182.215 52.3633C182.301 52.5117 182.438 52.6484 182.625 52.7734C182.812 52.8984 183.055 53.0156 183.352 53.125C183.656 53.2266 184.031 53.3203 184.477 53.4062C185.391 53.5938 186.207 53.8398 186.926 54.1445C187.645 54.4414 188.215 54.8477 188.637 55.3633C189.059 55.8711 189.27 56.5391 189.27 57.3672C189.27 57.9297 189.145 58.4453 188.895 58.9141C188.645 59.3828 188.285 59.793 187.816 60.1445C187.348 60.4883 186.785 60.7578 186.129 60.9531C185.48 61.1406 184.75 61.2344 183.938 61.2344C182.758 61.2344 181.758 61.0234 180.938 60.6016C180.125 60.1797 179.508 59.6445 179.086 58.9961C178.672 58.3398 178.465 57.668 178.465 56.9805H181.664C181.68 57.4414 181.797 57.8125 182.016 58.0938C182.242 58.375 182.527 58.5781 182.871 58.7031C183.223 58.8281 183.602 58.8906 184.008 58.8906C184.445 58.8906 184.809 58.832 185.098 58.7148C185.387 58.5898 185.605 58.4258 185.754 58.2227C185.91 58.0117 185.988 57.7695 185.988 57.4961ZM199.301 43.9375V61H195.797V43.9375H199.301ZM204.551 43.9375V46.6914H190.629V43.9375H204.551ZM211.078 61.2344C210.094 61.2344 209.211 61.0781 208.43 60.7656C207.648 60.4453 206.984 60.0039 206.438 59.4414C205.898 58.8789 205.484 58.2266 205.195 57.4844C204.906 56.7344 204.762 55.9375 204.762 55.0938V54.625C204.762 53.6641 204.898 52.7852 205.172 51.9883C205.445 51.1914 205.836 50.5 206.344 49.9141C206.859 49.3281 207.484 48.8789 208.219 48.5664C208.953 48.2461 209.781 48.0859 210.703 48.0859C211.602 48.0859 212.398 48.2344 213.094 48.5312C213.789 48.8281 214.371 49.25 214.84 49.7969C215.316 50.3438 215.676 51 215.918 51.7656C216.16 52.5234 216.281 53.3672 216.281 54.2969V55.7031H206.203V53.4531H212.965V53.1953C212.965 52.7266 212.879 52.3086 212.707 51.9414C212.543 51.5664 212.293 51.2695 211.957 51.0508C211.621 50.832 211.191 50.7227 210.668 50.7227C210.223 50.7227 209.84 50.8203 209.52 51.0156C209.199 51.2109 208.938 51.4844 208.734 51.8359C208.539 52.1875 208.391 52.6016 208.289 53.0781C208.195 53.5469 208.148 54.0625 208.148 54.625V55.0938C208.148 55.6016 208.219 56.0703 208.359 56.5C208.508 56.9297 208.715 57.3008 208.98 57.6133C209.254 57.9258 209.582 58.168 209.965 58.3398C210.355 58.5117 210.797 58.5977 211.289 58.5977C211.898 58.5977 212.465 58.4805 212.988 58.2461C213.52 58.0039 213.977 57.6406 214.359 57.1562L216 58.9375C215.734 59.3203 215.371 59.6875 214.91 60.0391C214.457 60.3906 213.91 60.6797 213.27 60.9062C212.629 61.125 211.898 61.2344 211.078 61.2344ZM225.059 57.4961C225.059 57.2539 224.988 57.0352 224.848 56.8398C224.707 56.6445 224.445 56.4648 224.062 56.3008C223.688 56.1289 223.145 55.9727 222.434 55.832C221.793 55.6914 221.195 55.5156 220.641 55.3047C220.094 55.0859 219.617 54.8242 219.211 54.5195C218.812 54.2148 218.5 53.8555 218.273 53.4414C218.047 53.0195 217.934 52.5391 217.934 52C217.934 51.4688 218.047 50.9688 218.273 50.5C218.508 50.0312 218.84 49.6172 219.27 49.2578C219.707 48.8906 220.238 48.6055 220.863 48.4023C221.496 48.1914 222.207 48.0859 222.996 48.0859C224.098 48.0859 225.043 48.2617 225.832 48.6133C226.629 48.9648 227.238 49.4492 227.66 50.0664C228.09 50.6758 228.305 51.3711 228.305 52.1523H224.93C224.93 51.8242 224.859 51.5312 224.719 51.2734C224.586 51.0078 224.375 50.8008 224.086 50.6523C223.805 50.4961 223.438 50.418 222.984 50.418C222.609 50.418 222.285 50.4844 222.012 50.6172C221.738 50.7422 221.527 50.9141 221.379 51.1328C221.238 51.3438 221.168 51.5781 221.168 51.8359C221.168 52.0312 221.207 52.207 221.285 52.3633C221.371 52.5117 221.508 52.6484 221.695 52.7734C221.883 52.8984 222.125 53.0156 222.422 53.125C222.727 53.2266 223.102 53.3203 223.547 53.4062C224.461 53.5938 225.277 53.8398 225.996 54.1445C226.715 54.4414 227.285 54.8477 227.707 55.3633C228.129 55.8711 228.34 56.5391 228.34 57.3672C228.34 57.9297 228.215 58.4453 227.965 58.9141C227.715 59.3828 227.355 59.793 226.887 60.1445C226.418 60.4883 225.855 60.7578 225.199 60.9531C224.551 61.1406 223.82 61.2344 223.008 61.2344C221.828 61.2344 220.828 61.0234 220.008 60.6016C219.195 60.1797 218.578 59.6445 218.156 58.9961C217.742 58.3398 217.535 57.668 217.535 56.9805H220.734C220.75 57.4414 220.867 57.8125 221.086 58.0938C221.312 58.375 221.598 58.5781 221.941 58.7031C222.293 58.8281 222.672 58.8906 223.078 58.8906C223.516 58.8906 223.879 58.832 224.168 58.7148C224.457 58.5898 224.676 58.4258 224.824 58.2227C224.98 58.0117 225.059 57.7695 225.059 57.4961ZM236.742 48.3203V50.7109H229.359V48.3203H236.742ZM231.188 45.1914H234.562V57.1797C234.562 57.5469 234.609 57.8281 234.703 58.0234C234.805 58.2188 234.953 58.3555 235.148 58.4336C235.344 58.5039 235.59 58.5391 235.887 58.5391C236.098 58.5391 236.285 58.5312 236.449 58.5156C236.621 58.4922 236.766 58.4688 236.883 58.4453L236.895 60.9297C236.605 61.0234 236.293 61.0977 235.957 61.1523C235.621 61.207 235.25 61.2344 234.844 61.2344C234.102 61.2344 233.453 61.1133 232.898 60.8711C232.352 60.6211 231.93 60.2227 231.633 59.6758C231.336 59.1289 231.188 58.4102 231.188 57.5195V45.1914Z" fill="#888888"/>
<path d="M109.219 107.422H100.734V101.07H109.219C110.375 101.07 111.312 100.875 112.031 100.484C112.75 100.094 113.273 99.5547 113.602 98.8672C113.945 98.1641 114.117 97.375 114.117 96.5C114.117 95.5625 113.945 94.6953 113.602 93.8984C113.273 93.1016 112.75 92.4609 112.031 91.9766C111.312 91.4766 110.375 91.2266 109.219 91.2266H103.828V119H95.6016V84.875H109.219C111.953 84.875 114.305 85.375 116.273 86.375C118.258 87.375 119.781 88.75 120.844 90.5C121.906 92.2344 122.438 94.2188 122.438 96.4531C122.438 98.6562 121.906 100.578 120.844 102.219C119.781 103.859 118.258 105.141 116.273 106.062C114.305 106.969 111.953 107.422 109.219 107.422ZM134.461 99.9219V119H126.562V93.6406H133.945L134.461 99.9219ZM141.961 93.4531L141.82 100.789C141.508 100.758 141.086 100.719 140.555 100.672C140.023 100.625 139.578 100.602 139.219 100.602C138.297 100.602 137.5 100.711 136.828 100.93C136.172 101.133 135.625 101.445 135.188 101.867C134.766 102.273 134.453 102.789 134.25 103.414C134.062 104.039 133.977 104.766 133.992 105.594L132.562 104.656C132.562 102.953 132.727 101.406 133.055 100.016C133.398 98.6094 133.883 97.3984 134.508 96.3828C135.133 95.3516 135.891 94.5625 136.781 94.0156C137.672 93.4531 138.672 93.1719 139.781 93.1719C140.172 93.1719 140.555 93.1953 140.93 93.2422C141.32 93.2891 141.664 93.3594 141.961 93.4531ZM142.852 106.578V106.086C142.852 104.227 143.117 102.516 143.648 100.953C144.18 99.375 144.961 98.0078 145.992 96.8516C147.023 95.6953 148.297 94.7969 149.812 94.1562C151.328 93.5 153.078 93.1719 155.062 93.1719C157.062 93.1719 158.82 93.5 160.336 94.1562C161.867 94.7969 163.148 95.6953 164.18 96.8516C165.211 98.0078 165.992 99.375 166.523 100.953C167.055 102.516 167.32 104.227 167.32 106.086V106.578C167.32 108.422 167.055 110.133 166.523 111.711C165.992 113.273 165.211 114.641 164.18 115.812C163.148 116.969 161.875 117.867 160.359 118.508C158.844 119.148 157.094 119.469 155.109 119.469C153.125 119.469 151.367 119.148 149.836 118.508C148.305 117.867 147.023 116.969 145.992 115.812C144.961 114.641 144.18 113.273 143.648 111.711C143.117 110.133 142.852 108.422 142.852 106.578ZM150.75 106.086V106.578C150.75 107.531 150.82 108.422 150.961 109.25C151.102 110.078 151.336 110.805 151.664 111.43C151.992 112.039 152.438 112.516 153 112.859C153.562 113.203 154.266 113.375 155.109 113.375C155.938 113.375 156.625 113.203 157.172 112.859C157.734 112.516 158.18 112.039 158.508 111.43C158.836 110.805 159.07 110.078 159.211 109.25C159.352 108.422 159.422 107.531 159.422 106.578V106.086C159.422 105.164 159.352 104.297 159.211 103.484C159.07 102.656 158.836 101.93 158.508 101.305C158.18 100.664 157.734 100.164 157.172 99.8047C156.609 99.4453 155.906 99.2656 155.062 99.2656C154.234 99.2656 153.539 99.4453 152.977 99.8047C152.43 100.164 151.992 100.664 151.664 101.305C151.336 101.93 151.102 102.656 150.961 103.484C150.82 104.297 150.75 105.164 150.75 106.086ZM184.195 93.6406V99.125H168.914V93.6406H184.195ZM172.125 87.3359H180.023V110.727C180.023 111.398 180.102 111.922 180.258 112.297C180.414 112.656 180.68 112.914 181.055 113.07C181.445 113.211 181.961 113.281 182.602 113.281C183.055 113.281 183.43 113.273 183.727 113.258C184.023 113.227 184.305 113.188 184.57 113.141V118.789C183.898 119.008 183.195 119.172 182.461 119.281C181.727 119.406 180.945 119.469 180.117 119.469C178.43 119.469 176.984 119.203 175.781 118.672C174.594 118.141 173.688 117.305 173.062 116.164C172.438 115.023 172.125 113.539 172.125 111.711V87.3359ZM185.648 106.578V106.086C185.648 104.227 185.914 102.516 186.445 100.953C186.977 99.375 187.758 98.0078 188.789 96.8516C189.82 95.6953 191.094 94.7969 192.609 94.1562C194.125 93.5 195.875 93.1719 197.859 93.1719C199.859 93.1719 201.617 93.5 203.133 94.1562C204.664 94.7969 205.945 95.6953 206.977 96.8516C208.008 98.0078 208.789 99.375 209.32 100.953C209.852 102.516 210.117 104.227 210.117 106.086V106.578C210.117 108.422 209.852 110.133 209.32 111.711C208.789 113.273 208.008 114.641 206.977 115.812C205.945 116.969 204.672 117.867 203.156 118.508C201.641 119.148 199.891 119.469 197.906 119.469C195.922 119.469 194.164 119.148 192.633 118.508C191.102 117.867 189.82 116.969 188.789 115.812C187.758 114.641 186.977 113.273 186.445 111.711C185.914 110.133 185.648 108.422 185.648 106.578ZM193.547 106.086V106.578C193.547 107.531 193.617 108.422 193.758 109.25C193.898 110.078 194.133 110.805 194.461 111.43C194.789 112.039 195.234 112.516 195.797 112.859C196.359 113.203 197.062 113.375 197.906 113.375C198.734 113.375 199.422 113.203 199.969 112.859C200.531 112.516 200.977 112.039 201.305 111.43C201.633 110.805 201.867 110.078 202.008 109.25C202.148 108.422 202.219 107.531 202.219 106.578V106.086C202.219 105.164 202.148 104.297 202.008 103.484C201.867 102.656 201.633 101.93 201.305 101.305C200.977 100.664 200.531 100.164 199.969 99.8047C199.406 99.4453 198.703 99.2656 197.859 99.2656C197.031 99.2656 196.336 99.4453 195.773 99.8047C195.227 100.164 194.789 100.664 194.461 101.305C194.133 101.93 193.898 102.656 193.758 103.484C193.617 104.297 193.547 105.164 193.547 106.086ZM226.992 93.6406V99.125H211.711V93.6406H226.992ZM214.922 87.3359H222.82V110.727C222.82 111.398 222.898 111.922 223.055 112.297C223.211 112.656 223.477 112.914 223.852 113.07C224.242 113.211 224.758 113.281 225.398 113.281C225.852 113.281 226.227 113.273 226.523 113.258C226.82 113.227 227.102 113.188 227.367 113.141V118.789C226.695 119.008 225.992 119.172 225.258 119.281C224.523 119.406 223.742 119.469 222.914 119.469C221.227 119.469 219.781 119.203 218.578 118.672C217.391 118.141 216.484 117.305 215.859 116.164C215.234 115.023 214.922 113.539 214.922 111.711V87.3359ZM237.914 116.023L244.477 93.6406H252.961L242.766 122.773C242.547 123.414 242.258 124.102 241.898 124.836C241.539 125.586 241.047 126.297 240.422 126.969C239.797 127.641 238.992 128.188 238.008 128.609C237.039 129.031 235.836 129.242 234.398 129.242C233.633 129.242 233.07 129.203 232.711 129.125C232.367 129.062 231.836 128.945 231.117 128.773V123.125C231.32 123.125 231.492 123.125 231.633 123.125C231.789 123.125 231.961 123.125 232.148 123.125C232.992 123.125 233.664 123.039 234.164 122.867C234.68 122.695 235.07 122.445 235.336 122.117C235.617 121.789 235.836 121.391 235.992 120.922L237.914 116.023ZM236.25 93.6406L241.242 111.383L242.109 119.75H236.812L227.789 93.6406H236.25ZM262.992 98.5156V128.75H255.094V93.6406H262.453L262.992 98.5156ZM278.555 106.016V106.508C278.555 108.352 278.344 110.062 277.922 111.641C277.5 113.219 276.875 114.594 276.047 115.766C275.219 116.938 274.188 117.852 272.953 118.508C271.734 119.148 270.32 119.469 268.711 119.469C267.195 119.469 265.891 119.133 264.797 118.461C263.703 117.789 262.789 116.859 262.055 115.672C261.32 114.484 260.727 113.125 260.273 111.594C259.82 110.062 259.461 108.445 259.195 106.742V106.109C259.461 104.281 259.82 102.586 260.273 101.023C260.727 99.4453 261.32 98.0703 262.055 96.8984C262.789 95.7266 263.695 94.8125 264.773 94.1562C265.867 93.5 267.172 93.1719 268.688 93.1719C270.297 93.1719 271.711 93.4766 272.93 94.0859C274.164 94.6953 275.195 95.5703 276.023 96.7109C276.867 97.8359 277.5 99.1875 277.922 100.766C278.344 102.344 278.555 104.094 278.555 106.016ZM270.656 106.508V106.016C270.656 105.031 270.586 104.133 270.445 103.32C270.305 102.492 270.078 101.773 269.766 101.164C269.469 100.555 269.07 100.086 268.57 99.7578C268.07 99.4297 267.453 99.2656 266.719 99.2656C265.875 99.2656 265.164 99.3984 264.586 99.6641C264.023 99.9141 263.57 100.305 263.227 100.836C262.898 101.352 262.664 102 262.523 102.781C262.398 103.547 262.344 104.445 262.359 105.477V107.398C262.328 108.586 262.445 109.633 262.711 110.539C262.977 111.43 263.438 112.125 264.094 112.625C264.75 113.125 265.641 113.375 266.766 113.375C267.516 113.375 268.141 113.203 268.641 112.859C269.141 112.5 269.539 112.008 269.836 111.383C270.133 110.742 270.344 110.008 270.469 109.18C270.594 108.352 270.656 107.461 270.656 106.508ZM290.414 93.6406V119H282.492V93.6406H290.414ZM282.023 87.1016C282.023 85.9766 282.43 85.0547 283.242 84.3359C284.055 83.6172 285.109 83.2578 286.406 83.2578C287.703 83.2578 288.758 83.6172 289.57 84.3359C290.383 85.0547 290.789 85.9766 290.789 87.1016C290.789 88.2266 290.383 89.1484 289.57 89.8672C288.758 90.5859 287.703 90.9453 286.406 90.9453C285.109 90.9453 284.055 90.5859 283.242 89.8672C282.43 89.1484 282.023 88.2266 282.023 87.1016ZM303.047 99.0547V119H295.148V93.6406H302.555L303.047 99.0547ZM302.109 105.453L300.258 105.5C300.258 103.562 300.492 101.836 300.961 100.32C301.43 98.7891 302.094 97.4922 302.953 96.4297C303.812 95.3672 304.836 94.5625 306.023 94.0156C307.227 93.4531 308.562 93.1719 310.031 93.1719C311.203 93.1719 312.273 93.3438 313.242 93.6875C314.227 94.0312 315.07 94.5859 315.773 95.3516C316.492 96.1172 317.039 97.1328 317.414 98.3984C317.805 99.6484 318 101.195 318 103.039V119H310.055V103.016C310.055 102 309.914 101.227 309.633 100.695C309.352 100.148 308.945 99.7734 308.414 99.5703C307.883 99.3672 307.234 99.2656 306.469 99.2656C305.656 99.2656 304.969 99.4219 304.406 99.7344C303.844 100.047 303.391 100.484 303.047 101.047C302.719 101.594 302.477 102.242 302.32 102.992C302.18 103.742 302.109 104.562 302.109 105.453ZM338.32 93.6406H345.492V118.016C345.492 120.359 344.953 122.344 343.875 123.969C342.797 125.609 341.289 126.852 339.352 127.695C337.43 128.555 335.18 128.984 332.602 128.984C331.461 128.984 330.297 128.836 329.109 128.539C327.922 128.258 326.812 127.836 325.781 127.273C324.75 126.711 323.883 126.016 323.18 125.188L326.484 120.547C327.125 121.266 327.93 121.875 328.898 122.375C329.867 122.891 331.008 123.148 332.32 123.148C333.461 123.148 334.414 122.945 335.18 122.539C335.961 122.133 336.555 121.539 336.961 120.758C337.367 119.992 337.57 119.062 337.57 117.969V99.6406L338.32 93.6406ZM321.469 106.625V106.133C321.469 104.211 321.703 102.461 322.172 100.883C322.656 99.2891 323.344 97.9219 324.234 96.7812C325.141 95.625 326.234 94.7344 327.516 94.1094C328.797 93.4844 330.242 93.1719 331.852 93.1719C333.586 93.1719 335.008 93.5078 336.117 94.1797C337.242 94.8359 338.141 95.7578 338.812 96.9453C339.5 98.1328 340.031 99.5234 340.406 101.117C340.797 102.695 341.125 104.398 341.391 106.227V106.812C341.125 108.531 340.758 110.156 340.289 111.688C339.836 113.203 339.242 114.547 338.508 115.719C337.773 116.891 336.852 117.812 335.742 118.484C334.648 119.141 333.336 119.469 331.805 119.469C330.211 119.469 328.773 119.148 327.492 118.508C326.227 117.867 325.141 116.969 324.234 115.812C323.344 114.656 322.656 113.297 322.172 111.734C321.703 110.172 321.469 108.469 321.469 106.625ZM329.367 106.133V106.625C329.367 107.578 329.453 108.461 329.625 109.273C329.812 110.086 330.094 110.805 330.469 111.43C330.844 112.039 331.305 112.516 331.852 112.859C332.414 113.203 333.07 113.375 333.82 113.375C334.961 113.375 335.883 113.133 336.586 112.648C337.289 112.164 337.797 111.477 338.109 110.586C338.422 109.695 338.555 108.648 338.508 107.445V105.594C338.539 104.562 338.469 103.656 338.297 102.875C338.125 102.078 337.852 101.414 337.477 100.883C337.117 100.352 336.633 99.9531 336.023 99.6875C335.43 99.4062 334.711 99.2656 333.867 99.2656C333.133 99.2656 332.484 99.4375 331.922 99.7812C331.359 100.125 330.891 100.609 330.516 101.234C330.141 101.844 329.852 102.57 329.648 103.414C329.461 104.242 329.367 105.148 329.367 106.133Z" fill="black"/>
<path d="M1134 0H1348C1356.28 0 1363 6.71573 1363 15V148C1363 156.284 1356.28 163 1348 163H1134V0Z" fill="#0CB4FB"/>
<path fill-rule="evenodd" clip-rule="evenodd" d="M1202.75 46.5018C1202.75 45.3973 1203.65 44.5018 1204.75 44.5018H1292.25C1293.35 44.5018 1294.25 45.3973 1294.25 46.5018V116.498C1294.25 117.603 1293.35 118.498 1292.25 118.498H1204.75C1203.65 118.498 1202.75 117.603 1202.75 116.498V46.5018ZM1206.75 48.5018V52.9963H1290.25V48.5018H1206.75ZM1290.25 56.9963H1235.19V114.498H1290.25V56.9963ZM1231.19 114.498V56.9963H1206.75V114.498H1231.19Z" fill="white"/>
<path fill-rule="evenodd" clip-rule="evenodd" d="M1209.72 62.3022C1209.72 61.1976 1210.62 60.3022 1211.72 60.3022H1225.72C1226.83 60.3022 1227.72 61.1976 1227.72 62.3022V81.6974C1227.72 82.802 1226.83 83.6974 1225.72 83.6974H1211.72C1210.62 83.6974 1209.72 82.802 1209.72 81.6974V62.3022ZM1213.72 64.3022V79.6974H1223.72V64.3022H1213.72ZM1239.33 63.1982C1239.33 62.0936 1240.22 61.1982 1241.33 61.1982H1284.25C1285.36 61.1982 1286.25 62.0936 1286.25 63.1982V109.407C1286.25 110.511 1285.36 111.407 1284.25 111.407H1241.33C1240.22 111.407 1239.33 110.511 1239.33 109.407V63.1982ZM1243.33 65.1982V107.407H1282.25V65.1982H1243.33ZM1209.56 93.4381C1209.56 92.3335 1210.46 91.4381 1211.56 91.4381H1220.48C1221.59 91.4381 1222.48 92.3335 1222.48 93.4381C1222.48 94.5427 1221.59 95.4381 1220.48 95.4381H1211.56C1210.46 95.4381 1209.56 94.5427 1209.56 93.4381ZM1209.56 100.438C1209.56 99.3335 1210.46 98.4381 1211.56 98.4381H1226.1C1227.21 98.4381 1228.1 99.3335 1228.1 100.438C1228.1 101.543 1227.21 102.438 1226.1 102.438H1211.56C1210.46 102.438 1209.56 101.543 1209.56 100.438ZM1209.56 107.438C1209.56 106.333 1210.46 105.438 1211.56 105.438H1220.48C1221.59 105.438 1222.48 106.333 1222.48 107.438C1222.48 108.543 1221.59 109.438 1220.48 109.438H1211.56C1210.46 109.438 1209.56 108.543 1209.56 107.438Z" fill="white"/>
</svg>
